G04 #@! TF.FileFunction,Paste,Top*
%FSLAX46Y46*%
G04 Gerber Fmt 4.6, Leading zero omitted, Abs format (unit mm)*
G04 Created by KiCad (PCBNEW (2015-09-14 BZR 5783, Git e27fa50)-product) date Sat 19 Sep 2015 09:51:44 PM EDT*
%MOMM*%
G01*
G04 APERTURE LIST*
%ADD10C,0.100000*%
%ADD11R,1.450000X2.450000*%
%ADD12R,2.457000X2.457000*%
%ADD13C,0.200000*%
%ADD14R,1.050000X1.800000*%
%ADD15R,2.200000X2.150000*%
%ADD16R,1.100000X2.100000*%
%ADD17R,3.500000X2.100000*%
%ADD18R,1.500000X4.000000*%
%ADD19R,2.100000X4.100000*%
%ADD20R,1.000000X2.700000*%
%ADD21R,0.900000X1.200000*%
%ADD22R,0.600000X0.650000*%
%ADD23R,0.650000X0.600000*%
%ADD24R,0.600000X0.600000*%
%ADD25R,1.150000X1.450000*%
%ADD26R,1.450000X1.150000*%
%ADD27O,0.600000X1.550000*%
%ADD28O,1.550000X0.600000*%
%ADD29R,0.900000X0.950000*%
%ADD30R,0.950000X0.900000*%
%ADD31R,0.600000X1.100000*%
%ADD32R,1.200000X1.800000*%
%ADD33R,1.800000X1.200000*%
%ADD34R,0.950000X1.000000*%
%ADD35R,1.000000X0.950000*%
%ADD36O,1.400000X0.450000*%
%ADD37R,0.650000X0.850000*%
%ADD38R,0.850000X0.650000*%
%ADD39R,1.300000X0.900000*%
%ADD40R,1.300000X0.800000*%
%ADD41R,0.900000X1.300000*%
%ADD42R,0.800000X1.300000*%
%ADD43R,3.400000X1.250000*%
%ADD44R,1.150000X2.700000*%
%ADD45R,2.700000X1.150000*%
G04 APERTURE END LIST*
D10*
D11*
X60700000Y-26600000D03*
X65300000Y-26600000D03*
D12*
X61262500Y-21437500D03*
X64737500Y-21437500D03*
X64737500Y-17962500D03*
X61262500Y-17962500D03*
D11*
X51962500Y-26600000D03*
X56562500Y-26600000D03*
D12*
X52525000Y-21437500D03*
X56000000Y-21437500D03*
X56000000Y-17962500D03*
X52525000Y-17962500D03*
D10*
G36*
X43500000Y-45020101D02*
X45479899Y-47000000D01*
X43500000Y-48979899D01*
X41520101Y-47000000D01*
X43500000Y-45020101D01*
X43500000Y-45020101D01*
G37*
D13*
X46540559Y-45939340D02*
X45727387Y-46752512D01*
X46257716Y-45656498D02*
X45444544Y-46469670D01*
X45974873Y-45373655D02*
X45161701Y-46186827D01*
X45692031Y-45090812D02*
X44878859Y-45903984D01*
X45409188Y-44807969D02*
X44596016Y-45621141D01*
X45126345Y-44525127D02*
X44313173Y-45338299D01*
X44843502Y-44242284D02*
X44030330Y-45055456D01*
X44560660Y-43959441D02*
X43747488Y-44772613D01*
X41272613Y-47247488D02*
X40459441Y-48060660D01*
X41555456Y-47530330D02*
X40742284Y-48343502D01*
X41838299Y-47813173D02*
X41025127Y-48626345D01*
X42121141Y-48096016D02*
X41307969Y-48909188D01*
X42403984Y-48378859D02*
X41590812Y-49192031D01*
X42686827Y-48661701D02*
X41873655Y-49474873D01*
X42969670Y-48944544D02*
X42156498Y-49757716D01*
X43252512Y-49227387D02*
X42439340Y-50040559D01*
X43252512Y-44772613D02*
X42439340Y-43959441D01*
X42969670Y-45055456D02*
X42156498Y-44242284D01*
X42686827Y-45338299D02*
X41873655Y-44525127D01*
X42403984Y-45621141D02*
X41590812Y-44807969D01*
X42121141Y-45903984D02*
X41307969Y-45090812D01*
X41838299Y-46186827D02*
X41025127Y-45373655D01*
X41555456Y-46469670D02*
X40742284Y-45656498D01*
X41272613Y-46752512D02*
X40459441Y-45939340D01*
X44560660Y-50040559D02*
X43747488Y-49227387D01*
X44843502Y-49757716D02*
X44030330Y-48944544D01*
X45126345Y-49474873D02*
X44313173Y-48661701D01*
X45409188Y-49192031D02*
X44596016Y-48378859D01*
X45692031Y-48909188D02*
X44878859Y-48096016D01*
X45974873Y-48626345D02*
X45161701Y-47813173D01*
X46257716Y-48343502D02*
X45444544Y-47530330D01*
X46540559Y-48060660D02*
X45727387Y-47247488D01*
D14*
X68500000Y-54000000D03*
X65500000Y-54000000D03*
D15*
X23800000Y-18500000D03*
X28200000Y-18500000D03*
D16*
X65800000Y-7900000D03*
X63500000Y-7900000D03*
X61200000Y-7900000D03*
D17*
X63500000Y-14100000D03*
D14*
X87500000Y-28000000D03*
X84500000Y-28000000D03*
D18*
X17500000Y-42500000D03*
X14500000Y-42500000D03*
X26500000Y-5500000D03*
X23500000Y-5500000D03*
X36500000Y-5500000D03*
X33500000Y-5500000D03*
D19*
X73000000Y-17750000D03*
X73000000Y-26250000D03*
D14*
X87500000Y-25000000D03*
X84500000Y-25000000D03*
X87500000Y-22000000D03*
X84500000Y-22000000D03*
D20*
X51100000Y-78000000D03*
X48900000Y-78000000D03*
D21*
X49900000Y-81500000D03*
X53100000Y-81500000D03*
D22*
X69000000Y-48950000D03*
X69000000Y-48050000D03*
D23*
X54050000Y-41000000D03*
X54950000Y-41000000D03*
X84550000Y-79000000D03*
X85450000Y-79000000D03*
X84550000Y-81000000D03*
X85450000Y-81000000D03*
X7550000Y-83000000D03*
X8450000Y-83000000D03*
X17550000Y-75000000D03*
X18450000Y-75000000D03*
X19900000Y-48500000D03*
X19000000Y-48500000D03*
X28200000Y-22000000D03*
X27300000Y-22000000D03*
X35050000Y-43500000D03*
X35950000Y-43500000D03*
D10*
G36*
X38239860Y-49164124D02*
X38664124Y-48739860D01*
X39123744Y-49199480D01*
X38699480Y-49623744D01*
X38239860Y-49164124D01*
X38239860Y-49164124D01*
G37*
G36*
X38876256Y-49800520D02*
X39300520Y-49376256D01*
X39760140Y-49835876D01*
X39335876Y-50260140D01*
X38876256Y-49800520D01*
X38876256Y-49800520D01*
G37*
D23*
X35050000Y-62000000D03*
X35950000Y-62000000D03*
X54050000Y-73500000D03*
X54950000Y-73500000D03*
D22*
X74750000Y-82300000D03*
X74750000Y-83200000D03*
X72750000Y-82300000D03*
X72750000Y-83200000D03*
X48000000Y-47450000D03*
X48000000Y-46550000D03*
D23*
X46450000Y-36000000D03*
X45550000Y-36000000D03*
X46450000Y-34500000D03*
X45550000Y-34500000D03*
D22*
X45000000Y-14550000D03*
X45000000Y-15450000D03*
D23*
X61800000Y-45250000D03*
X62700000Y-45250000D03*
X62050000Y-39250000D03*
X62950000Y-39250000D03*
X65450000Y-39250000D03*
X64550000Y-39250000D03*
X59950000Y-37500000D03*
X59050000Y-37500000D03*
X59950000Y-34500000D03*
X59050000Y-34500000D03*
D22*
X71500000Y-43950000D03*
X71500000Y-43050000D03*
X71500000Y-46050000D03*
X71500000Y-46950000D03*
D23*
X69950000Y-40000000D03*
X69050000Y-40000000D03*
X71550000Y-38250000D03*
X72450000Y-38250000D03*
X69050000Y-35250000D03*
X69950000Y-35250000D03*
D22*
X46750000Y-26050000D03*
X46750000Y-26950000D03*
D23*
X54050000Y-46000000D03*
X54950000Y-46000000D03*
D24*
X39900000Y-10500000D03*
X39000000Y-10500000D03*
X82550000Y-64000000D03*
X83450000Y-64000000D03*
X82550000Y-72000000D03*
X83450000Y-72000000D03*
X11700000Y-83000000D03*
X10800000Y-83000000D03*
X18450000Y-72750000D03*
X17550000Y-72750000D03*
X19050000Y-53000000D03*
X19950000Y-53000000D03*
X19950000Y-55000000D03*
X19050000Y-55000000D03*
X25150000Y-22000000D03*
X24250000Y-22000000D03*
X35450000Y-1500000D03*
X34550000Y-1500000D03*
X33750000Y-25250000D03*
X32850000Y-25250000D03*
X36200000Y-25250000D03*
X35300000Y-25250000D03*
X34000000Y-36950000D03*
X34000000Y-36050000D03*
X35750000Y-36950000D03*
X35750000Y-36050000D03*
X35050000Y-45500000D03*
X35950000Y-45500000D03*
X35050000Y-49500000D03*
X35950000Y-49500000D03*
X35050000Y-51500000D03*
X35950000Y-51500000D03*
X35050000Y-54000000D03*
X35950000Y-54000000D03*
X41950000Y-74500000D03*
X41050000Y-74500000D03*
X45450000Y-74500000D03*
X44550000Y-74500000D03*
X66050000Y-74500000D03*
X66950000Y-74500000D03*
X62550000Y-74500000D03*
X63450000Y-74500000D03*
X46500000Y-41050000D03*
X46500000Y-41950000D03*
X43950000Y-36000000D03*
X43050000Y-36000000D03*
X43950000Y-34500000D03*
X43050000Y-34500000D03*
X42250000Y-26050000D03*
X42250000Y-26950000D03*
X43750000Y-26950000D03*
X43750000Y-26050000D03*
X45250000Y-26050000D03*
X45250000Y-26950000D03*
X48250000Y-26950000D03*
X48250000Y-26050000D03*
X43500000Y-14550000D03*
X43500000Y-15450000D03*
X47500000Y-15450000D03*
X47500000Y-14550000D03*
X68250000Y-6050000D03*
X68250000Y-6950000D03*
X68250000Y-11450000D03*
X68250000Y-10550000D03*
X73500000Y-10550000D03*
X73500000Y-11450000D03*
X75000000Y-11450000D03*
X75000000Y-10550000D03*
X59950000Y-45000000D03*
X59050000Y-45000000D03*
X59950000Y-42000000D03*
X59050000Y-42000000D03*
X59050000Y-43500000D03*
X59950000Y-43500000D03*
X59950000Y-39000000D03*
X59050000Y-39000000D03*
X59950000Y-36000000D03*
X59050000Y-36000000D03*
X73050000Y-42750000D03*
X73950000Y-42750000D03*
X73050000Y-47250000D03*
X73950000Y-47250000D03*
X73050000Y-44250000D03*
X73950000Y-44250000D03*
X73050000Y-45750000D03*
X73950000Y-45750000D03*
X69050000Y-43500000D03*
X69950000Y-43500000D03*
X69050000Y-46500000D03*
X69950000Y-46500000D03*
X68050000Y-31750000D03*
X68950000Y-31750000D03*
X71550000Y-40000000D03*
X72450000Y-40000000D03*
X69050000Y-38250000D03*
X69950000Y-38250000D03*
X70300000Y-36750000D03*
X71200000Y-36750000D03*
D25*
X19900000Y-79000000D03*
X18100000Y-79000000D03*
X30100000Y-80000000D03*
X31900000Y-80000000D03*
X34600000Y-56000000D03*
X36400000Y-56000000D03*
X53600000Y-75600000D03*
X55400000Y-75600000D03*
X53600000Y-78000000D03*
X55400000Y-78000000D03*
X63400000Y-80000000D03*
X61600000Y-80000000D03*
D26*
X58000000Y-85000000D03*
X58000000Y-83200000D03*
D25*
X20400000Y-50500000D03*
X18600000Y-50500000D03*
D27*
X24095000Y-30200000D03*
X25365000Y-30200000D03*
X26635000Y-30200000D03*
X27905000Y-30200000D03*
X27905000Y-24800000D03*
X26635000Y-24800000D03*
X25365000Y-24800000D03*
X24095000Y-24800000D03*
D28*
X23300000Y-51095000D03*
X23300000Y-52365000D03*
X23300000Y-53635000D03*
X23300000Y-54905000D03*
X28700000Y-54905000D03*
X28700000Y-53635000D03*
X28700000Y-52365000D03*
X28700000Y-51095000D03*
D27*
X48810000Y-17500000D03*
X47540000Y-17500000D03*
X46270000Y-17500000D03*
X45000000Y-17500000D03*
X45000000Y-22900000D03*
X46270000Y-22900000D03*
X47540000Y-22900000D03*
X48810000Y-22900000D03*
D28*
X22300000Y-80595000D03*
X22300000Y-81865000D03*
X22300000Y-83135000D03*
X22300000Y-84405000D03*
X27700000Y-84405000D03*
X27700000Y-83135000D03*
X27700000Y-81865000D03*
X27700000Y-80595000D03*
X48800000Y-34595000D03*
X48800000Y-35865000D03*
X48800000Y-37135000D03*
X48800000Y-38405000D03*
X54200000Y-38405000D03*
X54200000Y-37135000D03*
X54200000Y-35865000D03*
X54200000Y-34595000D03*
D29*
X34050000Y-34200000D03*
X35550000Y-34200000D03*
X53000000Y-32500000D03*
X54500000Y-32500000D03*
D30*
X42750000Y-21500000D03*
X42750000Y-23000000D03*
D29*
X70250000Y-33500000D03*
X68750000Y-33500000D03*
D30*
X30000000Y-26750000D03*
X30000000Y-28250000D03*
X41000000Y-78750000D03*
X41000000Y-77250000D03*
X47000000Y-77250000D03*
X47000000Y-78750000D03*
D29*
X34250000Y-10000000D03*
X35750000Y-10000000D03*
D30*
X27500000Y-11750000D03*
X27500000Y-10250000D03*
D31*
X44950000Y-76900000D03*
X43050000Y-76900000D03*
X44000000Y-76900000D03*
X43050000Y-79100000D03*
X44950000Y-79100000D03*
X44000000Y-79100000D03*
D32*
X66950000Y-71500000D03*
X64050000Y-71500000D03*
X23000000Y-33750000D03*
X25900000Y-33750000D03*
X42550000Y-81500000D03*
X45450000Y-81500000D03*
D33*
X70500000Y-82050000D03*
X70500000Y-84950000D03*
X67500000Y-82050000D03*
X67500000Y-84950000D03*
D34*
X50700000Y-40500000D03*
X52300000Y-40500000D03*
X56200000Y-8000000D03*
X57800000Y-8000000D03*
D35*
X49000000Y-50800000D03*
X49000000Y-49200000D03*
X51500000Y-74800000D03*
X51500000Y-73200000D03*
D34*
X72950000Y-80250000D03*
X74550000Y-80250000D03*
D35*
X56000000Y-83200000D03*
X56000000Y-84800000D03*
D36*
X62250000Y-47525000D03*
X62250000Y-48175000D03*
X62250000Y-48825000D03*
X62250000Y-49475000D03*
X66750000Y-49475000D03*
X66750000Y-48825000D03*
X66750000Y-48175000D03*
X66750000Y-47525000D03*
X62250000Y-35775000D03*
X62250000Y-36425000D03*
X62250000Y-37075000D03*
X62250000Y-37725000D03*
X66750000Y-37725000D03*
X66750000Y-37075000D03*
X66750000Y-36425000D03*
X66750000Y-35775000D03*
X62250000Y-41525000D03*
X62250000Y-42175000D03*
X62250000Y-42825000D03*
X62250000Y-43475000D03*
X66750000Y-43475000D03*
X66750000Y-42825000D03*
X66750000Y-42175000D03*
X66750000Y-41525000D03*
X60250000Y-82525000D03*
X60250000Y-83175000D03*
X60250000Y-83825000D03*
X60250000Y-84475000D03*
X64750000Y-84475000D03*
X64750000Y-83825000D03*
X64750000Y-83175000D03*
X64750000Y-82525000D03*
D31*
X34550000Y-60100000D03*
X36450000Y-60100000D03*
X35500000Y-60100000D03*
X36450000Y-57900000D03*
X34550000Y-57900000D03*
D37*
X30350000Y-32450000D03*
X31650000Y-32450000D03*
X31000000Y-30550000D03*
X30350000Y-37200000D03*
X31650000Y-37200000D03*
X31000000Y-35300000D03*
D38*
X33550000Y-30850000D03*
X33550000Y-32150000D03*
X35450000Y-31500000D03*
X35950000Y-28150000D03*
X35950000Y-26850000D03*
X34050000Y-27500000D03*
D37*
X71900000Y-10050000D03*
X70600000Y-10050000D03*
X71250000Y-11950000D03*
X62350000Y-33450000D03*
X63650000Y-33450000D03*
X63000000Y-31550000D03*
X65350000Y-33450000D03*
X66650000Y-33450000D03*
X66000000Y-31550000D03*
X70600000Y-7450000D03*
X71900000Y-7450000D03*
X71250000Y-5550000D03*
D39*
X53400000Y-42550000D03*
X53400000Y-44450000D03*
D40*
X55600000Y-43500000D03*
D41*
X40450000Y-12400000D03*
X38550000Y-12400000D03*
D42*
X39500000Y-14600000D03*
D41*
X34550000Y-21100000D03*
X36450000Y-21100000D03*
D42*
X35500000Y-18900000D03*
D43*
X39500000Y-23050000D03*
X39500000Y-16950000D03*
D44*
X36500000Y-13000000D03*
X33500000Y-13000000D03*
D45*
X30000000Y-9500000D03*
X30000000Y-12500000D03*
M02*
