G04 #@! TF.FileFunction,Soldermask,Bot*
%FSLAX46Y46*%
G04 Gerber Fmt 4.6, Leading zero omitted, Abs format (unit mm)*
G04 Created by KiCad (PCBNEW (2015-09-14 BZR 5783, Git e27fa50)-product) date Sat 19 Sep 2015 09:51:44 PM EDT*
%MOMM*%
G01*
G04 APERTURE LIST*
%ADD10C,0.100000*%
G04 APERTURE END LIST*
D10*
G36*
X81193339Y-83670136D02*
X81193362Y-83670143D01*
X81193437Y-83670151D01*
X81372790Y-83725670D01*
X81537944Y-83814968D01*
X81682607Y-83934644D01*
X81801270Y-84080139D01*
X81889413Y-84245912D01*
X81943679Y-84425649D01*
X81962000Y-84612502D01*
X81962000Y-85387566D01*
X81961935Y-85396872D01*
X81961934Y-85396878D01*
X81961906Y-85400930D01*
X81940978Y-85587509D01*
X81884208Y-85766470D01*
X81793759Y-85930996D01*
X81673076Y-86074821D01*
X81526756Y-86192465D01*
X81360372Y-86279449D01*
X81180261Y-86332458D01*
X81180200Y-86332464D01*
X81180171Y-86332472D01*
X80993289Y-86349479D01*
X80806661Y-86329864D01*
X80806638Y-86329857D01*
X80806563Y-86329849D01*
X80627210Y-86274330D01*
X80462056Y-86185032D01*
X80317393Y-86065356D01*
X80198730Y-85919861D01*
X80110587Y-85754088D01*
X80056321Y-85574351D01*
X80038000Y-85387498D01*
X80038000Y-84612434D01*
X80038065Y-84603128D01*
X80038066Y-84603122D01*
X80038094Y-84599070D01*
X80059022Y-84412491D01*
X80115792Y-84233530D01*
X80206241Y-84069004D01*
X80326924Y-83925179D01*
X80473244Y-83807535D01*
X80639628Y-83720551D01*
X80819739Y-83667542D01*
X80819800Y-83667536D01*
X80819829Y-83667528D01*
X81006711Y-83650521D01*
X81193339Y-83670136D01*
X81193339Y-83670136D01*
G37*
G36*
X83733339Y-83670136D02*
X83733362Y-83670143D01*
X83733437Y-83670151D01*
X83912790Y-83725670D01*
X84077944Y-83814968D01*
X84222607Y-83934644D01*
X84341270Y-84080139D01*
X84429413Y-84245912D01*
X84483679Y-84425649D01*
X84502000Y-84612502D01*
X84502000Y-85387566D01*
X84501935Y-85396872D01*
X84501934Y-85396878D01*
X84501906Y-85400930D01*
X84480978Y-85587509D01*
X84424208Y-85766470D01*
X84333759Y-85930996D01*
X84213076Y-86074821D01*
X84066756Y-86192465D01*
X83900372Y-86279449D01*
X83720261Y-86332458D01*
X83720200Y-86332464D01*
X83720171Y-86332472D01*
X83533289Y-86349479D01*
X83346661Y-86329864D01*
X83346638Y-86329857D01*
X83346563Y-86329849D01*
X83167210Y-86274330D01*
X83002056Y-86185032D01*
X82857393Y-86065356D01*
X82738730Y-85919861D01*
X82650587Y-85754088D01*
X82596321Y-85574351D01*
X82578000Y-85387498D01*
X82578000Y-84612434D01*
X82578065Y-84603128D01*
X82578066Y-84603122D01*
X82578094Y-84599070D01*
X82599022Y-84412491D01*
X82655792Y-84233530D01*
X82746241Y-84069004D01*
X82866924Y-83925179D01*
X83013244Y-83807535D01*
X83179628Y-83720551D01*
X83359739Y-83667542D01*
X83359800Y-83667536D01*
X83359829Y-83667528D01*
X83546711Y-83650521D01*
X83733339Y-83670136D01*
X83733339Y-83670136D01*
G37*
G36*
X87042000Y-86343000D02*
X85118000Y-86343000D01*
X85118000Y-83657000D01*
X87042000Y-83657000D01*
X87042000Y-86343000D01*
X87042000Y-86343000D01*
G37*
G36*
X36146872Y-82308065D02*
X36146878Y-82308066D01*
X36150930Y-82308094D01*
X36337509Y-82329022D01*
X36516470Y-82385792D01*
X36680996Y-82476241D01*
X36824821Y-82596924D01*
X36942465Y-82743244D01*
X37029449Y-82909628D01*
X37082458Y-83089739D01*
X37082464Y-83089800D01*
X37082472Y-83089829D01*
X37099479Y-83276711D01*
X37079864Y-83463339D01*
X37079857Y-83463362D01*
X37079849Y-83463437D01*
X37024330Y-83642790D01*
X36935032Y-83807944D01*
X36815356Y-83952607D01*
X36669861Y-84071270D01*
X36504088Y-84159413D01*
X36324351Y-84213679D01*
X36137498Y-84232000D01*
X35362434Y-84232000D01*
X35353128Y-84231935D01*
X35353122Y-84231934D01*
X35349070Y-84231906D01*
X35162491Y-84210978D01*
X34983530Y-84154208D01*
X34819004Y-84063759D01*
X34675179Y-83943076D01*
X34557535Y-83796756D01*
X34470551Y-83630372D01*
X34417542Y-83450261D01*
X34417536Y-83450200D01*
X34417528Y-83450171D01*
X34400521Y-83263289D01*
X34420136Y-83076661D01*
X34420143Y-83076638D01*
X34420151Y-83076563D01*
X34475670Y-82897210D01*
X34564968Y-82732056D01*
X34684644Y-82587393D01*
X34830139Y-82468730D01*
X34995912Y-82380587D01*
X35175649Y-82326321D01*
X35362502Y-82308000D01*
X36137566Y-82308000D01*
X36146872Y-82308065D01*
X36146872Y-82308065D01*
G37*
G36*
X36146872Y-79768065D02*
X36146878Y-79768066D01*
X36150930Y-79768094D01*
X36337509Y-79789022D01*
X36516470Y-79845792D01*
X36680996Y-79936241D01*
X36824821Y-80056924D01*
X36942465Y-80203244D01*
X37029449Y-80369628D01*
X37082458Y-80549739D01*
X37082464Y-80549800D01*
X37082472Y-80549829D01*
X37099479Y-80736711D01*
X37079864Y-80923339D01*
X37079857Y-80923362D01*
X37079849Y-80923437D01*
X37024330Y-81102790D01*
X36935032Y-81267944D01*
X36815356Y-81412607D01*
X36669861Y-81531270D01*
X36504088Y-81619413D01*
X36324351Y-81673679D01*
X36137498Y-81692000D01*
X35362434Y-81692000D01*
X35353128Y-81691935D01*
X35353122Y-81691934D01*
X35349070Y-81691906D01*
X35162491Y-81670978D01*
X34983530Y-81614208D01*
X34819004Y-81523759D01*
X34675179Y-81403076D01*
X34557535Y-81256756D01*
X34470551Y-81090372D01*
X34417542Y-80910261D01*
X34417536Y-80910200D01*
X34417528Y-80910171D01*
X34400521Y-80723289D01*
X34420136Y-80536661D01*
X34420143Y-80536638D01*
X34420151Y-80536563D01*
X34475670Y-80357210D01*
X34564968Y-80192056D01*
X34684644Y-80047393D01*
X34830139Y-79928730D01*
X34995912Y-79840587D01*
X35175649Y-79786321D01*
X35362502Y-79768000D01*
X36137566Y-79768000D01*
X36146872Y-79768065D01*
X36146872Y-79768065D01*
G37*
G36*
X67599783Y-77550629D02*
X67782286Y-77588091D01*
X67954031Y-77660286D01*
X68108488Y-77764468D01*
X68239763Y-77896663D01*
X68342862Y-78051839D01*
X68413859Y-78224090D01*
X68449909Y-78406158D01*
X68449909Y-78406180D01*
X68450041Y-78406848D01*
X68447070Y-78619643D01*
X68446918Y-78620311D01*
X68446918Y-78620330D01*
X68405798Y-78801319D01*
X68330020Y-78971521D01*
X68222630Y-79123755D01*
X68087711Y-79252236D01*
X67930408Y-79352064D01*
X67756712Y-79419437D01*
X67573236Y-79451788D01*
X67386970Y-79447886D01*
X67205013Y-79407881D01*
X67034289Y-79333293D01*
X66881305Y-79226967D01*
X66751886Y-79092949D01*
X66650963Y-78936346D01*
X66582377Y-78763121D01*
X66548746Y-78579878D01*
X66551347Y-78393594D01*
X66590083Y-78211358D01*
X66663477Y-78040115D01*
X66768734Y-77886393D01*
X66901843Y-77756042D01*
X67057737Y-77654028D01*
X67230472Y-77584238D01*
X67413481Y-77549327D01*
X67599783Y-77550629D01*
X67599783Y-77550629D01*
G37*
G36*
X4383339Y-74670136D02*
X4383362Y-74670143D01*
X4383437Y-74670151D01*
X4562790Y-74725670D01*
X4727944Y-74814968D01*
X4872607Y-74934644D01*
X4991270Y-75080139D01*
X5079413Y-75245912D01*
X5133679Y-75425649D01*
X5152000Y-75612502D01*
X5152000Y-76387566D01*
X5151935Y-76396872D01*
X5151934Y-76396878D01*
X5151906Y-76400930D01*
X5130978Y-76587509D01*
X5074208Y-76766470D01*
X4983759Y-76930996D01*
X4863076Y-77074821D01*
X4716756Y-77192465D01*
X4550372Y-77279449D01*
X4370261Y-77332458D01*
X4370200Y-77332464D01*
X4370171Y-77332472D01*
X4183289Y-77349479D01*
X3996661Y-77329864D01*
X3996638Y-77329857D01*
X3996563Y-77329849D01*
X3817210Y-77274330D01*
X3652056Y-77185032D01*
X3507393Y-77065356D01*
X3388730Y-76919861D01*
X3300587Y-76754088D01*
X3246321Y-76574351D01*
X3228000Y-76387498D01*
X3228000Y-75612434D01*
X3228065Y-75603128D01*
X3228066Y-75603122D01*
X3228094Y-75599070D01*
X3249022Y-75412491D01*
X3305792Y-75233530D01*
X3396241Y-75069004D01*
X3516924Y-74925179D01*
X3663244Y-74807535D01*
X3829628Y-74720551D01*
X4009739Y-74667542D01*
X4009800Y-74667536D01*
X4009829Y-74667528D01*
X4196711Y-74650521D01*
X4383339Y-74670136D01*
X4383339Y-74670136D01*
G37*
G36*
X6923339Y-74670136D02*
X6923362Y-74670143D01*
X6923437Y-74670151D01*
X7102790Y-74725670D01*
X7267944Y-74814968D01*
X7412607Y-74934644D01*
X7531270Y-75080139D01*
X7619413Y-75245912D01*
X7673679Y-75425649D01*
X7692000Y-75612502D01*
X7692000Y-76387566D01*
X7691935Y-76396872D01*
X7691934Y-76396878D01*
X7691906Y-76400930D01*
X7670978Y-76587509D01*
X7614208Y-76766470D01*
X7523759Y-76930996D01*
X7403076Y-77074821D01*
X7256756Y-77192465D01*
X7090372Y-77279449D01*
X6910261Y-77332458D01*
X6910200Y-77332464D01*
X6910171Y-77332472D01*
X6723289Y-77349479D01*
X6536661Y-77329864D01*
X6536638Y-77329857D01*
X6536563Y-77329849D01*
X6357210Y-77274330D01*
X6192056Y-77185032D01*
X6047393Y-77065356D01*
X5928730Y-76919861D01*
X5840587Y-76754088D01*
X5786321Y-76574351D01*
X5768000Y-76387498D01*
X5768000Y-75612434D01*
X5768065Y-75603128D01*
X5768066Y-75603122D01*
X5768094Y-75599070D01*
X5789022Y-75412491D01*
X5845792Y-75233530D01*
X5936241Y-75069004D01*
X6056924Y-74925179D01*
X6203244Y-74807535D01*
X6369628Y-74720551D01*
X6549739Y-74667542D01*
X6549800Y-74667536D01*
X6549829Y-74667528D01*
X6736711Y-74650521D01*
X6923339Y-74670136D01*
X6923339Y-74670136D01*
G37*
G36*
X9463339Y-74670136D02*
X9463362Y-74670143D01*
X9463437Y-74670151D01*
X9642790Y-74725670D01*
X9807944Y-74814968D01*
X9952607Y-74934644D01*
X10071270Y-75080139D01*
X10159413Y-75245912D01*
X10213679Y-75425649D01*
X10232000Y-75612502D01*
X10232000Y-76387566D01*
X10231935Y-76396872D01*
X10231934Y-76396878D01*
X10231906Y-76400930D01*
X10210978Y-76587509D01*
X10154208Y-76766470D01*
X10063759Y-76930996D01*
X9943076Y-77074821D01*
X9796756Y-77192465D01*
X9630372Y-77279449D01*
X9450261Y-77332458D01*
X9450200Y-77332464D01*
X9450171Y-77332472D01*
X9263289Y-77349479D01*
X9076661Y-77329864D01*
X9076638Y-77329857D01*
X9076563Y-77329849D01*
X8897210Y-77274330D01*
X8732056Y-77185032D01*
X8587393Y-77065356D01*
X8468730Y-76919861D01*
X8380587Y-76754088D01*
X8326321Y-76574351D01*
X8308000Y-76387498D01*
X8308000Y-75612434D01*
X8308065Y-75603128D01*
X8308066Y-75603122D01*
X8308094Y-75599070D01*
X8329022Y-75412491D01*
X8385792Y-75233530D01*
X8476241Y-75069004D01*
X8596924Y-74925179D01*
X8743244Y-74807535D01*
X8909628Y-74720551D01*
X9089739Y-74667542D01*
X9089800Y-74667536D01*
X9089829Y-74667528D01*
X9276711Y-74650521D01*
X9463339Y-74670136D01*
X9463339Y-74670136D01*
G37*
G36*
X12772000Y-77343000D02*
X10848000Y-77343000D01*
X10848000Y-74657000D01*
X12772000Y-74657000D01*
X12772000Y-77343000D01*
X12772000Y-77343000D01*
G37*
G36*
X86962000Y-77232000D02*
X85038000Y-77232000D01*
X85038000Y-75308000D01*
X86962000Y-75308000D01*
X86962000Y-77232000D01*
X86962000Y-77232000D01*
G37*
G36*
X73993661Y-66803127D02*
X74896558Y-66988465D01*
X75746250Y-67345642D01*
X76510393Y-67861063D01*
X77159866Y-68515085D01*
X77669935Y-69282803D01*
X78021175Y-70134976D01*
X78200069Y-71038453D01*
X78200069Y-71038473D01*
X78200201Y-71039141D01*
X78185501Y-72091916D01*
X78185349Y-72092584D01*
X78185349Y-72092603D01*
X77981301Y-72990727D01*
X77606401Y-73832767D01*
X77075096Y-74585938D01*
X76407614Y-75221573D01*
X75629378Y-75715456D01*
X74770042Y-76048771D01*
X73862323Y-76208827D01*
X72940807Y-76189523D01*
X72040592Y-75991599D01*
X71195963Y-75622590D01*
X70439096Y-75096553D01*
X69798816Y-74433524D01*
X69299513Y-73658756D01*
X68960206Y-72801764D01*
X68793818Y-71895188D01*
X68806687Y-70973563D01*
X68998323Y-70071985D01*
X69361428Y-69224798D01*
X69882168Y-68464277D01*
X70540710Y-67819385D01*
X71311969Y-67314687D01*
X72166571Y-66969405D01*
X73071965Y-66796691D01*
X73993661Y-66803127D01*
X73993661Y-66803127D01*
G37*
G36*
X86101043Y-72768637D02*
X86285852Y-72806572D01*
X86459766Y-72879679D01*
X86616174Y-72985177D01*
X86749107Y-73119042D01*
X86853508Y-73276179D01*
X86925402Y-73450605D01*
X86961909Y-73634981D01*
X86961909Y-73634998D01*
X86962042Y-73635671D01*
X86959033Y-73851154D01*
X86958881Y-73851822D01*
X86958881Y-73851841D01*
X86917241Y-74035123D01*
X86840503Y-74207479D01*
X86731758Y-74361634D01*
X86595136Y-74491736D01*
X86435841Y-74592828D01*
X86259958Y-74661049D01*
X86074160Y-74693811D01*
X85885544Y-74689859D01*
X85701285Y-74649347D01*
X85528406Y-74573818D01*
X85373490Y-74466149D01*
X85242436Y-74330439D01*
X85140237Y-74171857D01*
X85070787Y-73996446D01*
X85036731Y-73810887D01*
X85039364Y-73622250D01*
X85078590Y-73437707D01*
X85152908Y-73264310D01*
X85259497Y-73108642D01*
X85394285Y-72976648D01*
X85552153Y-72873342D01*
X85727069Y-72802671D01*
X85912388Y-72767319D01*
X86101043Y-72768637D01*
X86101043Y-72768637D01*
G37*
G36*
X35153339Y-71920136D02*
X35153362Y-71920143D01*
X35153437Y-71920151D01*
X35332790Y-71975670D01*
X35497944Y-72064968D01*
X35642607Y-72184644D01*
X35761270Y-72330139D01*
X35849413Y-72495912D01*
X35903679Y-72675649D01*
X35922000Y-72862502D01*
X35922000Y-73637566D01*
X35921935Y-73646872D01*
X35921934Y-73646878D01*
X35921906Y-73650930D01*
X35900978Y-73837509D01*
X35844208Y-74016470D01*
X35753759Y-74180996D01*
X35633076Y-74324821D01*
X35486756Y-74442465D01*
X35320372Y-74529449D01*
X35140261Y-74582458D01*
X35140200Y-74582464D01*
X35140171Y-74582472D01*
X34953289Y-74599479D01*
X34766661Y-74579864D01*
X34766638Y-74579857D01*
X34766563Y-74579849D01*
X34587210Y-74524330D01*
X34422056Y-74435032D01*
X34277393Y-74315356D01*
X34158730Y-74169861D01*
X34070587Y-74004088D01*
X34016321Y-73824351D01*
X33998000Y-73637498D01*
X33998000Y-72862434D01*
X33998065Y-72853128D01*
X33998066Y-72853122D01*
X33998094Y-72849070D01*
X34019022Y-72662491D01*
X34075792Y-72483530D01*
X34166241Y-72319004D01*
X34286924Y-72175179D01*
X34433244Y-72057535D01*
X34599628Y-71970551D01*
X34779739Y-71917542D01*
X34779800Y-71917536D01*
X34779829Y-71917528D01*
X34966711Y-71900521D01*
X35153339Y-71920136D01*
X35153339Y-71920136D01*
G37*
G36*
X32613339Y-71920136D02*
X32613362Y-71920143D01*
X32613437Y-71920151D01*
X32792790Y-71975670D01*
X32957944Y-72064968D01*
X33102607Y-72184644D01*
X33221270Y-72330139D01*
X33309413Y-72495912D01*
X33363679Y-72675649D01*
X33382000Y-72862502D01*
X33382000Y-73637566D01*
X33381935Y-73646872D01*
X33381934Y-73646878D01*
X33381906Y-73650930D01*
X33360978Y-73837509D01*
X33304208Y-74016470D01*
X33213759Y-74180996D01*
X33093076Y-74324821D01*
X32946756Y-74442465D01*
X32780372Y-74529449D01*
X32600261Y-74582458D01*
X32600200Y-74582464D01*
X32600171Y-74582472D01*
X32413289Y-74599479D01*
X32226661Y-74579864D01*
X32226638Y-74579857D01*
X32226563Y-74579849D01*
X32047210Y-74524330D01*
X31882056Y-74435032D01*
X31737393Y-74315356D01*
X31618730Y-74169861D01*
X31530587Y-74004088D01*
X31476321Y-73824351D01*
X31458000Y-73637498D01*
X31458000Y-72862434D01*
X31458065Y-72853128D01*
X31458066Y-72853122D01*
X31458094Y-72849070D01*
X31479022Y-72662491D01*
X31535792Y-72483530D01*
X31626241Y-72319004D01*
X31746924Y-72175179D01*
X31893244Y-72057535D01*
X32059628Y-71970551D01*
X32239739Y-71917542D01*
X32239800Y-71917536D01*
X32239829Y-71917528D01*
X32426711Y-71900521D01*
X32613339Y-71920136D01*
X32613339Y-71920136D01*
G37*
G36*
X38462000Y-74593000D02*
X36538000Y-74593000D01*
X36538000Y-71907000D01*
X38462000Y-71907000D01*
X38462000Y-74593000D01*
X38462000Y-74593000D01*
G37*
G36*
X4383339Y-67670136D02*
X4383362Y-67670143D01*
X4383437Y-67670151D01*
X4562790Y-67725670D01*
X4727944Y-67814968D01*
X4872607Y-67934644D01*
X4991270Y-68080139D01*
X5079413Y-68245912D01*
X5133679Y-68425649D01*
X5152000Y-68612502D01*
X5152000Y-69387566D01*
X5151935Y-69396872D01*
X5151934Y-69396878D01*
X5151906Y-69400930D01*
X5130978Y-69587509D01*
X5074208Y-69766470D01*
X4983759Y-69930996D01*
X4863076Y-70074821D01*
X4716756Y-70192465D01*
X4550372Y-70279449D01*
X4370261Y-70332458D01*
X4370200Y-70332464D01*
X4370171Y-70332472D01*
X4183289Y-70349479D01*
X3996661Y-70329864D01*
X3996638Y-70329857D01*
X3996563Y-70329849D01*
X3817210Y-70274330D01*
X3652056Y-70185032D01*
X3507393Y-70065356D01*
X3388730Y-69919861D01*
X3300587Y-69754088D01*
X3246321Y-69574351D01*
X3228000Y-69387498D01*
X3228000Y-68612434D01*
X3228065Y-68603128D01*
X3228066Y-68603122D01*
X3228094Y-68599070D01*
X3249022Y-68412491D01*
X3305792Y-68233530D01*
X3396241Y-68069004D01*
X3516924Y-67925179D01*
X3663244Y-67807535D01*
X3829628Y-67720551D01*
X4009739Y-67667542D01*
X4009800Y-67667536D01*
X4009829Y-67667528D01*
X4196711Y-67650521D01*
X4383339Y-67670136D01*
X4383339Y-67670136D01*
G37*
G36*
X9463339Y-67670136D02*
X9463362Y-67670143D01*
X9463437Y-67670151D01*
X9642790Y-67725670D01*
X9807944Y-67814968D01*
X9952607Y-67934644D01*
X10071270Y-68080139D01*
X10159413Y-68245912D01*
X10213679Y-68425649D01*
X10232000Y-68612502D01*
X10232000Y-69387566D01*
X10231935Y-69396872D01*
X10231934Y-69396878D01*
X10231906Y-69400930D01*
X10210978Y-69587509D01*
X10154208Y-69766470D01*
X10063759Y-69930996D01*
X9943076Y-70074821D01*
X9796756Y-70192465D01*
X9630372Y-70279449D01*
X9450261Y-70332458D01*
X9450200Y-70332464D01*
X9450171Y-70332472D01*
X9263289Y-70349479D01*
X9076661Y-70329864D01*
X9076638Y-70329857D01*
X9076563Y-70329849D01*
X8897210Y-70274330D01*
X8732056Y-70185032D01*
X8587393Y-70065356D01*
X8468730Y-69919861D01*
X8380587Y-69754088D01*
X8326321Y-69574351D01*
X8308000Y-69387498D01*
X8308000Y-68612434D01*
X8308065Y-68603128D01*
X8308066Y-68603122D01*
X8308094Y-68599070D01*
X8329022Y-68412491D01*
X8385792Y-68233530D01*
X8476241Y-68069004D01*
X8596924Y-67925179D01*
X8743244Y-67807535D01*
X8909628Y-67720551D01*
X9089739Y-67667542D01*
X9089800Y-67667536D01*
X9089829Y-67667528D01*
X9276711Y-67650521D01*
X9463339Y-67670136D01*
X9463339Y-67670136D01*
G37*
G36*
X6923339Y-67670136D02*
X6923362Y-67670143D01*
X6923437Y-67670151D01*
X7102790Y-67725670D01*
X7267944Y-67814968D01*
X7412607Y-67934644D01*
X7531270Y-68080139D01*
X7619413Y-68245912D01*
X7673679Y-68425649D01*
X7692000Y-68612502D01*
X7692000Y-69387566D01*
X7691935Y-69396872D01*
X7691934Y-69396878D01*
X7691906Y-69400930D01*
X7670978Y-69587509D01*
X7614208Y-69766470D01*
X7523759Y-69930996D01*
X7403076Y-70074821D01*
X7256756Y-70192465D01*
X7090372Y-70279449D01*
X6910261Y-70332458D01*
X6910200Y-70332464D01*
X6910171Y-70332472D01*
X6723289Y-70349479D01*
X6536661Y-70329864D01*
X6536638Y-70329857D01*
X6536563Y-70329849D01*
X6357210Y-70274330D01*
X6192056Y-70185032D01*
X6047393Y-70065356D01*
X5928730Y-69919861D01*
X5840587Y-69754088D01*
X5786321Y-69574351D01*
X5768000Y-69387498D01*
X5768000Y-68612434D01*
X5768065Y-68603128D01*
X5768066Y-68603122D01*
X5768094Y-68599070D01*
X5789022Y-68412491D01*
X5845792Y-68233530D01*
X5936241Y-68069004D01*
X6056924Y-67925179D01*
X6203244Y-67807535D01*
X6369628Y-67720551D01*
X6549739Y-67667542D01*
X6549800Y-67667536D01*
X6549829Y-67667528D01*
X6736711Y-67650521D01*
X6923339Y-67670136D01*
X6923339Y-67670136D01*
G37*
G36*
X12772000Y-70343000D02*
X10848000Y-70343000D01*
X10848000Y-67657000D01*
X12772000Y-67657000D01*
X12772000Y-70343000D01*
X12772000Y-70343000D01*
G37*
G36*
X86962000Y-69232000D02*
X85038000Y-69232000D01*
X85038000Y-67308000D01*
X86962000Y-67308000D01*
X86962000Y-69232000D01*
X86962000Y-69232000D01*
G37*
G36*
X43599783Y-67050629D02*
X43782286Y-67088091D01*
X43954031Y-67160286D01*
X44108488Y-67264468D01*
X44239763Y-67396663D01*
X44342862Y-67551839D01*
X44413859Y-67724090D01*
X44449909Y-67906158D01*
X44449909Y-67906180D01*
X44450041Y-67906848D01*
X44447070Y-68119643D01*
X44446918Y-68120311D01*
X44446918Y-68120330D01*
X44405798Y-68301319D01*
X44330020Y-68471521D01*
X44222630Y-68623755D01*
X44087711Y-68752236D01*
X43930408Y-68852064D01*
X43756712Y-68919437D01*
X43573236Y-68951788D01*
X43386970Y-68947886D01*
X43205013Y-68907881D01*
X43034289Y-68833293D01*
X42881305Y-68726967D01*
X42751886Y-68592949D01*
X42650963Y-68436346D01*
X42582377Y-68263121D01*
X42548746Y-68079878D01*
X42551347Y-67893594D01*
X42590083Y-67711358D01*
X42663477Y-67540115D01*
X42768734Y-67386393D01*
X42901843Y-67256042D01*
X43057737Y-67154028D01*
X43230472Y-67084238D01*
X43413481Y-67049327D01*
X43599783Y-67050629D01*
X43599783Y-67050629D01*
G37*
G36*
X86101043Y-64768637D02*
X86285852Y-64806572D01*
X86459766Y-64879679D01*
X86616174Y-64985177D01*
X86749107Y-65119042D01*
X86853508Y-65276179D01*
X86925402Y-65450605D01*
X86961909Y-65634981D01*
X86961909Y-65634998D01*
X86962042Y-65635671D01*
X86959033Y-65851154D01*
X86958881Y-65851822D01*
X86958881Y-65851841D01*
X86917241Y-66035123D01*
X86840503Y-66207479D01*
X86731758Y-66361634D01*
X86595136Y-66491736D01*
X86435841Y-66592828D01*
X86259958Y-66661049D01*
X86074160Y-66693811D01*
X85885544Y-66689859D01*
X85701285Y-66649347D01*
X85528406Y-66573818D01*
X85373490Y-66466149D01*
X85242436Y-66330439D01*
X85140237Y-66171857D01*
X85070787Y-65996446D01*
X85036731Y-65810887D01*
X85039364Y-65622250D01*
X85078590Y-65437707D01*
X85152908Y-65264310D01*
X85259497Y-65108642D01*
X85394285Y-64976648D01*
X85552153Y-64873342D01*
X85727069Y-64802671D01*
X85912388Y-64767319D01*
X86101043Y-64768637D01*
X86101043Y-64768637D01*
G37*
G36*
X13276972Y-57800088D02*
X13276978Y-57800089D01*
X13281029Y-57800117D01*
X13513768Y-57826223D01*
X13737004Y-57897038D01*
X13942234Y-58009864D01*
X14121641Y-58160404D01*
X14268391Y-58342924D01*
X14376895Y-58550472D01*
X14443019Y-58775142D01*
X14443025Y-58775208D01*
X14443032Y-58775232D01*
X14464249Y-59008373D01*
X14439779Y-59241195D01*
X14439772Y-59241217D01*
X14439764Y-59241294D01*
X14370510Y-59465019D01*
X14259119Y-59671031D01*
X14109835Y-59851485D01*
X13928344Y-59999505D01*
X13721558Y-60109455D01*
X13497355Y-60177146D01*
X13264274Y-60200000D01*
X9735656Y-60200000D01*
X9723028Y-60199912D01*
X9723022Y-60199911D01*
X9718971Y-60199883D01*
X9486232Y-60173777D01*
X9262996Y-60102962D01*
X9057766Y-59990136D01*
X8878359Y-59839596D01*
X8731609Y-59657076D01*
X8623105Y-59449528D01*
X8556981Y-59224858D01*
X8556975Y-59224792D01*
X8556968Y-59224768D01*
X8535751Y-58991627D01*
X8560221Y-58758805D01*
X8560228Y-58758783D01*
X8560236Y-58758706D01*
X8629490Y-58534981D01*
X8740881Y-58328969D01*
X8890165Y-58148515D01*
X9071656Y-58000495D01*
X9278442Y-57890545D01*
X9502645Y-57822854D01*
X9735726Y-57800000D01*
X13264344Y-57800000D01*
X13276972Y-57800088D01*
X13276972Y-57800088D01*
G37*
G36*
X86056660Y-49300185D02*
X86056667Y-49300186D01*
X86060716Y-49300214D01*
X86487405Y-49348075D01*
X86896671Y-49477902D01*
X87272926Y-49684750D01*
X87601839Y-49960741D01*
X87870880Y-50295361D01*
X88069803Y-50675865D01*
X88191031Y-51087761D01*
X88191037Y-51087822D01*
X88191045Y-51087851D01*
X88229950Y-51515354D01*
X88185079Y-51942273D01*
X88185073Y-51942291D01*
X88185065Y-51942371D01*
X88058098Y-52352534D01*
X87853882Y-52730224D01*
X87580194Y-53061056D01*
X87535969Y-53097125D01*
X87517710Y-53116904D01*
X87505139Y-53142079D01*
X87500000Y-53173723D01*
X87500000Y-55828874D01*
X87503959Y-55856733D01*
X87515523Y-55882387D01*
X87535006Y-55904661D01*
X87601839Y-55960741D01*
X87870880Y-56295361D01*
X88069803Y-56675865D01*
X88191031Y-57087761D01*
X88191037Y-57087822D01*
X88191045Y-57087851D01*
X88229950Y-57515354D01*
X88185079Y-57942273D01*
X88185073Y-57942291D01*
X88185065Y-57942371D01*
X88058098Y-58352534D01*
X87853882Y-58730224D01*
X87580194Y-59061056D01*
X87247460Y-59332427D01*
X86868354Y-59534001D01*
X86457315Y-59658101D01*
X86029999Y-59700000D01*
X77969928Y-59700000D01*
X77943340Y-59699815D01*
X77943333Y-59699814D01*
X77939284Y-59699786D01*
X77512595Y-59651925D01*
X77103329Y-59522098D01*
X76727074Y-59315250D01*
X76398161Y-59039259D01*
X76129120Y-58704639D01*
X75930197Y-58324135D01*
X75808969Y-57912239D01*
X75808963Y-57912178D01*
X75808955Y-57912149D01*
X75770050Y-57484646D01*
X75814921Y-57057727D01*
X75814927Y-57057709D01*
X75814935Y-57057629D01*
X75941902Y-56647466D01*
X76146118Y-56269776D01*
X76419806Y-55938944D01*
X76464031Y-55902875D01*
X76482290Y-55883096D01*
X76494861Y-55857921D01*
X76500000Y-55826277D01*
X76500000Y-53171126D01*
X76496041Y-53143267D01*
X76484477Y-53117613D01*
X76464994Y-53095339D01*
X76398161Y-53039259D01*
X76129120Y-52704639D01*
X75930197Y-52324135D01*
X75808969Y-51912239D01*
X75808963Y-51912178D01*
X75808955Y-51912149D01*
X75770050Y-51484646D01*
X75814921Y-51057727D01*
X75814927Y-51057709D01*
X75814935Y-51057629D01*
X75941902Y-50647466D01*
X76146118Y-50269776D01*
X76419806Y-49938944D01*
X76752540Y-49667573D01*
X77131646Y-49465999D01*
X77542685Y-49341899D01*
X77970001Y-49300000D01*
X86030072Y-49300000D01*
X86056660Y-49300185D01*
X86056660Y-49300185D01*
G37*
G36*
X67099783Y-56550629D02*
X67282286Y-56588091D01*
X67454031Y-56660286D01*
X67608488Y-56764468D01*
X67739763Y-56896663D01*
X67842862Y-57051839D01*
X67913859Y-57224090D01*
X67949909Y-57406158D01*
X67949909Y-57406180D01*
X67950041Y-57406848D01*
X67947070Y-57619643D01*
X67946918Y-57620311D01*
X67946918Y-57620330D01*
X67905798Y-57801319D01*
X67830020Y-57971521D01*
X67722630Y-58123755D01*
X67587711Y-58252236D01*
X67430408Y-58352064D01*
X67256712Y-58419437D01*
X67073236Y-58451788D01*
X66886970Y-58447886D01*
X66705013Y-58407881D01*
X66534289Y-58333293D01*
X66381305Y-58226967D01*
X66251886Y-58092949D01*
X66150963Y-57936346D01*
X66082377Y-57763121D01*
X66048746Y-57579878D01*
X66051347Y-57393594D01*
X66090083Y-57211358D01*
X66163477Y-57040115D01*
X66268734Y-56886393D01*
X66401843Y-56756042D01*
X66557737Y-56654028D01*
X66730472Y-56584238D01*
X66913481Y-56549327D01*
X67099783Y-56550629D01*
X67099783Y-56550629D01*
G37*
G36*
X53193339Y-55670136D02*
X53193362Y-55670143D01*
X53193437Y-55670151D01*
X53372790Y-55725670D01*
X53537944Y-55814968D01*
X53682607Y-55934644D01*
X53801270Y-56080139D01*
X53889413Y-56245912D01*
X53943679Y-56425649D01*
X53962000Y-56612502D01*
X53962000Y-57387566D01*
X53961935Y-57396872D01*
X53961934Y-57396878D01*
X53961906Y-57400930D01*
X53940978Y-57587509D01*
X53884208Y-57766470D01*
X53793759Y-57930996D01*
X53673076Y-58074821D01*
X53526756Y-58192465D01*
X53360372Y-58279449D01*
X53180261Y-58332458D01*
X53180200Y-58332464D01*
X53180171Y-58332472D01*
X52993289Y-58349479D01*
X52806661Y-58329864D01*
X52806638Y-58329857D01*
X52806563Y-58329849D01*
X52627210Y-58274330D01*
X52462056Y-58185032D01*
X52317393Y-58065356D01*
X52198730Y-57919861D01*
X52110587Y-57754088D01*
X52056321Y-57574351D01*
X52038000Y-57387498D01*
X52038000Y-56612434D01*
X52038065Y-56603128D01*
X52038066Y-56603122D01*
X52038094Y-56599070D01*
X52059022Y-56412491D01*
X52115792Y-56233530D01*
X52206241Y-56069004D01*
X52326924Y-55925179D01*
X52473244Y-55807535D01*
X52639628Y-55720551D01*
X52819739Y-55667542D01*
X52819800Y-55667536D01*
X52819829Y-55667528D01*
X53006711Y-55650521D01*
X53193339Y-55670136D01*
X53193339Y-55670136D01*
G37*
G36*
X55733339Y-55670136D02*
X55733362Y-55670143D01*
X55733437Y-55670151D01*
X55912790Y-55725670D01*
X56077944Y-55814968D01*
X56222607Y-55934644D01*
X56341270Y-56080139D01*
X56429413Y-56245912D01*
X56483679Y-56425649D01*
X56502000Y-56612502D01*
X56502000Y-57387566D01*
X56501935Y-57396872D01*
X56501934Y-57396878D01*
X56501906Y-57400930D01*
X56480978Y-57587509D01*
X56424208Y-57766470D01*
X56333759Y-57930996D01*
X56213076Y-58074821D01*
X56066756Y-58192465D01*
X55900372Y-58279449D01*
X55720261Y-58332458D01*
X55720200Y-58332464D01*
X55720171Y-58332472D01*
X55533289Y-58349479D01*
X55346661Y-58329864D01*
X55346638Y-58329857D01*
X55346563Y-58329849D01*
X55167210Y-58274330D01*
X55002056Y-58185032D01*
X54857393Y-58065356D01*
X54738730Y-57919861D01*
X54650587Y-57754088D01*
X54596321Y-57574351D01*
X54578000Y-57387498D01*
X54578000Y-56612434D01*
X54578065Y-56603128D01*
X54578066Y-56603122D01*
X54578094Y-56599070D01*
X54599022Y-56412491D01*
X54655792Y-56233530D01*
X54746241Y-56069004D01*
X54866924Y-55925179D01*
X55013244Y-55807535D01*
X55179628Y-55720551D01*
X55359739Y-55667542D01*
X55359800Y-55667536D01*
X55359829Y-55667528D01*
X55546711Y-55650521D01*
X55733339Y-55670136D01*
X55733339Y-55670136D01*
G37*
G36*
X51422000Y-58343000D02*
X49498000Y-58343000D01*
X49498000Y-55657000D01*
X51422000Y-55657000D01*
X51422000Y-58343000D01*
X51422000Y-58343000D01*
G37*
G36*
X8241195Y-51311431D02*
X8241217Y-51311438D01*
X8241294Y-51311446D01*
X8465019Y-51380700D01*
X8671031Y-51492091D01*
X8851485Y-51641375D01*
X8999505Y-51822866D01*
X9109455Y-52029652D01*
X9177146Y-52253855D01*
X9200000Y-52486936D01*
X9200000Y-55513134D01*
X9199912Y-55525762D01*
X9199911Y-55525768D01*
X9199883Y-55529819D01*
X9173777Y-55762558D01*
X9102962Y-55985794D01*
X8990136Y-56191024D01*
X8839596Y-56370431D01*
X8657076Y-56517181D01*
X8449528Y-56625685D01*
X8224858Y-56691809D01*
X8224792Y-56691815D01*
X8224768Y-56691822D01*
X7991627Y-56713039D01*
X7758805Y-56688569D01*
X7758783Y-56688562D01*
X7758706Y-56688554D01*
X7534981Y-56619300D01*
X7328969Y-56507909D01*
X7148515Y-56358625D01*
X7000495Y-56177134D01*
X6890545Y-55970348D01*
X6822854Y-55746145D01*
X6800000Y-55513064D01*
X6800000Y-52486866D01*
X6800088Y-52474238D01*
X6800089Y-52474232D01*
X6800117Y-52470181D01*
X6826223Y-52237442D01*
X6897038Y-52014206D01*
X7009864Y-51808976D01*
X7160404Y-51629569D01*
X7342924Y-51482819D01*
X7550472Y-51374315D01*
X7775142Y-51308191D01*
X7775208Y-51308185D01*
X7775232Y-51308178D01*
X8008373Y-51286961D01*
X8241195Y-51311431D01*
X8241195Y-51311431D01*
G37*
G36*
X15200000Y-56450000D02*
X12800000Y-56450000D01*
X12800000Y-51550000D01*
X15200000Y-51550000D01*
X15200000Y-56450000D01*
X15200000Y-56450000D01*
G37*
G36*
X66589285Y-51110591D02*
X66752568Y-51144108D01*
X66906238Y-51208705D01*
X67044437Y-51301921D01*
X67161894Y-51420201D01*
X67254139Y-51559043D01*
X67317662Y-51713161D01*
X67349904Y-51875994D01*
X67349904Y-51876009D01*
X67350037Y-51876682D01*
X67347378Y-52067078D01*
X67347227Y-52067741D01*
X67347227Y-52067765D01*
X67310451Y-52229633D01*
X67242652Y-52381910D01*
X67146561Y-52518128D01*
X67025847Y-52633083D01*
X66885101Y-52722403D01*
X66729693Y-52782682D01*
X66565526Y-52811630D01*
X66398868Y-52808138D01*
X66236063Y-52772344D01*
X66083311Y-52705608D01*
X65946431Y-52610473D01*
X65830635Y-52490563D01*
X65740332Y-52350440D01*
X65678969Y-52195457D01*
X65648878Y-52031500D01*
X65651205Y-51864824D01*
X65685863Y-51701771D01*
X65751532Y-51548552D01*
X65845709Y-51411012D01*
X65964804Y-51294385D01*
X66104293Y-51203106D01*
X66258845Y-51140663D01*
X66422588Y-51109427D01*
X66589285Y-51110591D01*
X66589285Y-51110591D01*
G37*
G36*
X45500000Y-47000000D02*
X43500000Y-49000000D01*
X41500000Y-47000000D01*
X43500000Y-45000000D01*
X45500000Y-47000000D01*
X45500000Y-47000000D01*
G37*
G36*
X5101683Y-41538637D02*
X5286492Y-41576572D01*
X5460406Y-41649679D01*
X5616814Y-41755177D01*
X5749747Y-41889042D01*
X5854148Y-42046179D01*
X5926042Y-42220605D01*
X5962549Y-42404981D01*
X5962549Y-42404998D01*
X5962682Y-42405671D01*
X5959673Y-42621154D01*
X5959521Y-42621822D01*
X5959521Y-42621841D01*
X5917881Y-42805123D01*
X5841143Y-42977479D01*
X5732398Y-43131634D01*
X5595776Y-43261736D01*
X5436481Y-43362828D01*
X5260598Y-43431049D01*
X5074800Y-43463811D01*
X4886184Y-43459859D01*
X4701925Y-43419347D01*
X4529046Y-43343818D01*
X4374130Y-43236149D01*
X4243076Y-43100439D01*
X4140877Y-42941857D01*
X4071427Y-42766446D01*
X4037371Y-42580887D01*
X4040004Y-42392250D01*
X4079230Y-42207707D01*
X4153548Y-42034310D01*
X4260137Y-41878642D01*
X4394925Y-41746648D01*
X4552793Y-41643342D01*
X4727709Y-41572671D01*
X4913028Y-41537319D01*
X5101683Y-41538637D01*
X5101683Y-41538637D01*
G37*
G36*
X27100403Y-41538637D02*
X27285212Y-41576572D01*
X27459126Y-41649679D01*
X27615534Y-41755177D01*
X27748467Y-41889042D01*
X27852868Y-42046179D01*
X27924762Y-42220605D01*
X27961269Y-42404981D01*
X27961269Y-42404998D01*
X27961402Y-42405671D01*
X27958393Y-42621154D01*
X27958241Y-42621822D01*
X27958241Y-42621841D01*
X27916601Y-42805123D01*
X27839863Y-42977479D01*
X27731118Y-43131634D01*
X27594496Y-43261736D01*
X27435201Y-43362828D01*
X27259318Y-43431049D01*
X27073520Y-43463811D01*
X26884904Y-43459859D01*
X26700645Y-43419347D01*
X26527766Y-43343818D01*
X26372850Y-43236149D01*
X26241796Y-43100439D01*
X26139597Y-42941857D01*
X26070147Y-42766446D01*
X26036091Y-42580887D01*
X26038724Y-42392250D01*
X26077950Y-42207707D01*
X26152268Y-42034310D01*
X26258857Y-41878642D01*
X26393645Y-41746648D01*
X26551513Y-41643342D01*
X26726429Y-41572671D01*
X26911748Y-41537319D01*
X27100403Y-41538637D01*
X27100403Y-41538637D01*
G37*
G36*
X22962640Y-43462000D02*
X21038640Y-43462000D01*
X21038640Y-41538000D01*
X22962640Y-41538000D01*
X22962640Y-43462000D01*
X22962640Y-43462000D01*
G37*
G36*
X10961360Y-43462000D02*
X9037360Y-43462000D01*
X9037360Y-41538000D01*
X10961360Y-41538000D01*
X10961360Y-43462000D01*
X10961360Y-43462000D01*
G37*
G36*
X44584028Y-41700529D02*
X44737717Y-41732076D01*
X44882340Y-41792870D01*
X45012412Y-41880604D01*
X45122959Y-41991926D01*
X45209778Y-42122601D01*
X45269566Y-42267655D01*
X45299902Y-42420866D01*
X45299902Y-42420888D01*
X45300034Y-42421556D01*
X45297532Y-42600752D01*
X45297381Y-42601415D01*
X45297381Y-42601439D01*
X45262778Y-42753745D01*
X45198966Y-42897069D01*
X45108531Y-43025267D01*
X44994915Y-43133462D01*
X44862449Y-43217528D01*
X44716180Y-43274262D01*
X44561671Y-43301507D01*
X44404817Y-43298220D01*
X44251589Y-43264532D01*
X44107822Y-43201721D01*
X43978994Y-43112183D01*
X43870009Y-42999326D01*
X43785021Y-42867450D01*
X43727264Y-42721575D01*
X43698944Y-42567266D01*
X43701134Y-42410395D01*
X43733754Y-42256930D01*
X43795559Y-42112731D01*
X43884197Y-41983278D01*
X43996287Y-41873511D01*
X44127566Y-41787603D01*
X44273033Y-41728832D01*
X44427142Y-41699433D01*
X44584028Y-41700529D01*
X44584028Y-41700529D01*
G37*
G36*
X42584028Y-41700529D02*
X42737717Y-41732076D01*
X42882340Y-41792870D01*
X43012412Y-41880604D01*
X43122959Y-41991926D01*
X43209778Y-42122601D01*
X43269566Y-42267655D01*
X43299902Y-42420866D01*
X43299902Y-42420888D01*
X43300034Y-42421556D01*
X43297532Y-42600752D01*
X43297381Y-42601415D01*
X43297381Y-42601439D01*
X43262778Y-42753745D01*
X43198966Y-42897069D01*
X43108531Y-43025267D01*
X42994915Y-43133462D01*
X42862449Y-43217528D01*
X42716180Y-43274262D01*
X42561671Y-43301507D01*
X42404817Y-43298220D01*
X42251589Y-43264532D01*
X42107822Y-43201721D01*
X41978994Y-43112183D01*
X41870009Y-42999326D01*
X41785021Y-42867450D01*
X41727264Y-42721575D01*
X41698944Y-42567266D01*
X41701134Y-42410395D01*
X41733754Y-42256930D01*
X41795559Y-42112731D01*
X41884197Y-41983278D01*
X41996287Y-41873511D01*
X42127566Y-41787603D01*
X42273033Y-41728832D01*
X42427142Y-41699433D01*
X42584028Y-41700529D01*
X42584028Y-41700529D01*
G37*
G36*
X42584028Y-39700529D02*
X42737717Y-39732076D01*
X42882340Y-39792870D01*
X43012412Y-39880604D01*
X43122959Y-39991926D01*
X43209778Y-40122601D01*
X43269566Y-40267655D01*
X43299902Y-40420866D01*
X43299902Y-40420888D01*
X43300034Y-40421556D01*
X43297532Y-40600752D01*
X43297381Y-40601415D01*
X43297381Y-40601439D01*
X43262778Y-40753745D01*
X43198966Y-40897069D01*
X43108531Y-41025267D01*
X42994915Y-41133462D01*
X42862449Y-41217528D01*
X42716180Y-41274262D01*
X42561671Y-41301507D01*
X42404817Y-41298220D01*
X42251589Y-41264532D01*
X42107822Y-41201721D01*
X41978994Y-41112183D01*
X41870009Y-40999326D01*
X41785021Y-40867450D01*
X41727264Y-40721575D01*
X41698944Y-40567266D01*
X41701134Y-40410395D01*
X41733754Y-40256930D01*
X41795559Y-40112731D01*
X41884197Y-39983278D01*
X41996287Y-39873511D01*
X42127566Y-39787603D01*
X42273033Y-39728832D01*
X42427142Y-39699433D01*
X42584028Y-39700529D01*
X42584028Y-39700529D01*
G37*
G36*
X45300000Y-41300000D02*
X43700000Y-41300000D01*
X43700000Y-39700000D01*
X45300000Y-39700000D01*
X45300000Y-41300000D01*
X45300000Y-41300000D01*
G37*
G36*
X86056660Y-30300185D02*
X86056667Y-30300186D01*
X86060716Y-30300214D01*
X86487405Y-30348075D01*
X86896671Y-30477902D01*
X87272926Y-30684750D01*
X87601839Y-30960741D01*
X87870880Y-31295361D01*
X88069803Y-31675865D01*
X88191031Y-32087761D01*
X88191037Y-32087822D01*
X88191045Y-32087851D01*
X88229950Y-32515354D01*
X88185079Y-32942273D01*
X88185073Y-32942291D01*
X88185065Y-32942371D01*
X88058098Y-33352534D01*
X87853882Y-33730224D01*
X87580194Y-34061056D01*
X87535969Y-34097125D01*
X87517710Y-34116904D01*
X87505139Y-34142079D01*
X87500000Y-34173723D01*
X87500000Y-36828874D01*
X87503959Y-36856733D01*
X87515523Y-36882387D01*
X87535006Y-36904661D01*
X87601839Y-36960741D01*
X87870880Y-37295361D01*
X88069803Y-37675865D01*
X88191031Y-38087761D01*
X88191037Y-38087822D01*
X88191045Y-38087851D01*
X88229950Y-38515354D01*
X88185079Y-38942273D01*
X88185073Y-38942291D01*
X88185065Y-38942371D01*
X88058098Y-39352534D01*
X87853882Y-39730224D01*
X87580194Y-40061056D01*
X87247460Y-40332427D01*
X86868354Y-40534001D01*
X86457315Y-40658101D01*
X86029999Y-40700000D01*
X77969928Y-40700000D01*
X77943340Y-40699815D01*
X77943333Y-40699814D01*
X77939284Y-40699786D01*
X77512595Y-40651925D01*
X77103329Y-40522098D01*
X76727074Y-40315250D01*
X76398161Y-40039259D01*
X76129120Y-39704639D01*
X75930197Y-39324135D01*
X75808969Y-38912239D01*
X75808963Y-38912178D01*
X75808955Y-38912149D01*
X75770050Y-38484646D01*
X75814921Y-38057727D01*
X75814927Y-38057709D01*
X75814935Y-38057629D01*
X75941902Y-37647466D01*
X76146118Y-37269776D01*
X76419806Y-36938944D01*
X76464031Y-36902875D01*
X76482290Y-36883096D01*
X76494861Y-36857921D01*
X76500000Y-36826277D01*
X76500000Y-34171126D01*
X76496041Y-34143267D01*
X76484477Y-34117613D01*
X76464994Y-34095339D01*
X76398161Y-34039259D01*
X76129120Y-33704639D01*
X75930197Y-33324135D01*
X75808969Y-32912239D01*
X75808963Y-32912178D01*
X75808955Y-32912149D01*
X75770050Y-32484646D01*
X75814921Y-32057727D01*
X75814927Y-32057709D01*
X75814935Y-32057629D01*
X75941902Y-31647466D01*
X76146118Y-31269776D01*
X76419806Y-30938944D01*
X76752540Y-30667573D01*
X77131646Y-30465999D01*
X77542685Y-30341899D01*
X77970001Y-30300000D01*
X86030072Y-30300000D01*
X86056660Y-30300185D01*
X86056660Y-30300185D01*
G37*
G36*
X64900000Y-26875000D02*
X61100000Y-26875000D01*
X61100000Y-25225000D01*
X64900000Y-25225000D01*
X64900000Y-26875000D01*
X64900000Y-26875000D01*
G37*
G36*
X59900000Y-26875000D02*
X56100000Y-26875000D01*
X56100000Y-25225000D01*
X59900000Y-25225000D01*
X59900000Y-26875000D01*
X59900000Y-26875000D01*
G37*
G36*
X21391912Y-23925713D02*
X21598428Y-23968104D01*
X21792771Y-24049798D01*
X21967548Y-24167687D01*
X22116101Y-24317280D01*
X22232763Y-24492872D01*
X22313102Y-24687786D01*
X22353913Y-24893901D01*
X22353913Y-24893918D01*
X22354046Y-24894591D01*
X22350683Y-25135385D01*
X22350532Y-25136048D01*
X22350532Y-25136072D01*
X22303982Y-25340964D01*
X22218231Y-25533564D01*
X22096712Y-25705827D01*
X21944042Y-25851212D01*
X21766037Y-25964178D01*
X21569491Y-26040413D01*
X21361871Y-26077022D01*
X21151098Y-26072606D01*
X20945198Y-26027337D01*
X20752011Y-25942936D01*
X20578899Y-25822619D01*
X20432451Y-25670968D01*
X20318247Y-25493759D01*
X20240640Y-25297744D01*
X20202583Y-25090388D01*
X20205526Y-24879593D01*
X20249359Y-24673374D01*
X20332407Y-24479609D01*
X20451516Y-24305656D01*
X20602136Y-24158157D01*
X20778547Y-24042717D01*
X20974011Y-23963744D01*
X21181097Y-23924240D01*
X21391912Y-23925713D01*
X21391912Y-23925713D01*
G37*
G36*
X1833912Y-23925713D02*
X2040428Y-23968104D01*
X2234771Y-24049798D01*
X2409548Y-24167687D01*
X2558101Y-24317280D01*
X2674763Y-24492872D01*
X2755102Y-24687786D01*
X2795913Y-24893901D01*
X2795913Y-24893918D01*
X2796046Y-24894591D01*
X2792683Y-25135385D01*
X2792532Y-25136048D01*
X2792532Y-25136072D01*
X2745982Y-25340964D01*
X2660231Y-25533564D01*
X2538712Y-25705827D01*
X2386042Y-25851212D01*
X2208037Y-25964178D01*
X2011491Y-26040413D01*
X1803871Y-26077022D01*
X1593098Y-26072606D01*
X1387198Y-26027337D01*
X1194011Y-25942936D01*
X1020899Y-25822619D01*
X874451Y-25670968D01*
X760247Y-25493759D01*
X682640Y-25297744D01*
X644583Y-25090388D01*
X647526Y-24879593D01*
X691359Y-24673374D01*
X774407Y-24479609D01*
X893516Y-24305656D01*
X1044136Y-24158157D01*
X1220547Y-24042717D01*
X1416011Y-23963744D01*
X1623097Y-23924240D01*
X1833912Y-23925713D01*
X1833912Y-23925713D01*
G37*
G36*
X32500000Y-23496859D02*
X30000000Y-23496859D01*
X30000000Y-15846859D01*
X29996041Y-15819000D01*
X29984477Y-15793346D01*
X29966224Y-15771930D01*
X29942728Y-15756447D01*
X29915848Y-15748123D01*
X29900000Y-15746859D01*
X27500000Y-15746859D01*
X27500000Y-13746859D01*
X32500000Y-13746859D01*
X32500000Y-23496859D01*
X32500000Y-23496859D01*
G37*
G36*
X59900000Y-20775000D02*
X56100000Y-20775000D01*
X56100000Y-19125000D01*
X59900000Y-19125000D01*
X59900000Y-20775000D01*
X59900000Y-20775000D01*
G37*
G36*
X64900000Y-20775000D02*
X61100000Y-20775000D01*
X61100000Y-19125000D01*
X64900000Y-19125000D01*
X64900000Y-20775000D01*
X64900000Y-20775000D01*
G37*
G36*
X54125993Y-11801305D02*
X54356417Y-11848605D01*
X54573264Y-11939758D01*
X54768289Y-12071305D01*
X54934039Y-12238215D01*
X55064214Y-12434144D01*
X55148055Y-12637557D01*
X55162332Y-12661805D01*
X55182799Y-12681117D01*
X55207836Y-12693961D01*
X55235459Y-12699322D01*
X55263483Y-12696775D01*
X55289688Y-12686522D01*
X55311999Y-12669374D01*
X55328649Y-12646690D01*
X55338320Y-12620264D01*
X55340510Y-12599450D01*
X55340510Y-11800510D01*
X57739490Y-11800510D01*
X57739490Y-14199490D01*
X55340510Y-14199490D01*
X55340510Y-13405614D01*
X55336551Y-13377755D01*
X55324987Y-13352101D01*
X55306734Y-13330685D01*
X55283238Y-13315202D01*
X55256358Y-13306878D01*
X55228223Y-13306372D01*
X55201061Y-13313724D01*
X55177023Y-13328352D01*
X55158012Y-13349098D01*
X55148133Y-13371702D01*
X55147666Y-13371494D01*
X55047998Y-13595352D01*
X54912406Y-13787565D01*
X54742057Y-13949787D01*
X54543438Y-14075834D01*
X54324133Y-14160897D01*
X54092467Y-14201747D01*
X53857288Y-14196820D01*
X53627542Y-14146307D01*
X53411984Y-14052132D01*
X53218823Y-13917882D01*
X53055416Y-13748669D01*
X52927988Y-13550938D01*
X52841393Y-13332223D01*
X52828008Y-13259298D01*
X52819085Y-13232611D01*
X52803080Y-13209466D01*
X52781261Y-13191697D01*
X52755355Y-13180710D01*
X52727414Y-13177375D01*
X52699651Y-13181956D01*
X52674262Y-13194091D01*
X52653260Y-13212818D01*
X52638306Y-13236655D01*
X52632136Y-13255195D01*
X52603679Y-13380449D01*
X52507998Y-13595352D01*
X52372406Y-13787565D01*
X52202057Y-13949787D01*
X52003438Y-14075834D01*
X51784133Y-14160897D01*
X51552467Y-14201747D01*
X51317288Y-14196820D01*
X51087542Y-14146307D01*
X50871984Y-14052132D01*
X50678823Y-13917882D01*
X50515416Y-13748669D01*
X50387988Y-13550938D01*
X50301393Y-13332224D01*
X50258929Y-13100856D01*
X50262213Y-12865649D01*
X50311121Y-12635555D01*
X50403790Y-12419341D01*
X50536689Y-12225248D01*
X50704754Y-12060667D01*
X50901591Y-11931860D01*
X51119692Y-11843741D01*
X51350760Y-11799662D01*
X51585993Y-11801305D01*
X51816417Y-11848605D01*
X52033264Y-11939758D01*
X52228289Y-12071305D01*
X52394039Y-12238215D01*
X52524214Y-12434144D01*
X52613857Y-12651634D01*
X52632013Y-12743328D01*
X52641307Y-12769887D01*
X52657634Y-12792806D01*
X52679699Y-12810269D01*
X52705755Y-12820893D01*
X52733740Y-12823838D01*
X52761437Y-12818870D01*
X52786654Y-12806382D01*
X52807393Y-12787363D01*
X52822012Y-12763320D01*
X52827923Y-12744695D01*
X52851121Y-12635555D01*
X52943790Y-12419341D01*
X53076689Y-12225248D01*
X53244754Y-12060667D01*
X53441591Y-11931860D01*
X53659692Y-11843741D01*
X53890760Y-11799662D01*
X54125993Y-11801305D01*
X54125993Y-11801305D01*
G37*
G36*
X45101043Y-8037997D02*
X45285852Y-8075932D01*
X45459766Y-8149039D01*
X45616174Y-8254537D01*
X45749107Y-8388402D01*
X45853508Y-8545539D01*
X45925402Y-8719965D01*
X45961909Y-8904341D01*
X45961909Y-8904358D01*
X45962042Y-8905031D01*
X45959033Y-9120514D01*
X45958881Y-9121182D01*
X45958881Y-9121201D01*
X45917241Y-9304483D01*
X45840503Y-9476839D01*
X45731758Y-9630994D01*
X45595136Y-9761096D01*
X45435841Y-9862188D01*
X45259958Y-9930409D01*
X45074160Y-9963171D01*
X44885544Y-9959219D01*
X44701285Y-9918707D01*
X44528406Y-9843178D01*
X44373490Y-9735509D01*
X44242436Y-9599799D01*
X44140237Y-9441217D01*
X44070787Y-9265806D01*
X44036731Y-9080247D01*
X44039364Y-8891610D01*
X44078590Y-8707067D01*
X44152908Y-8533670D01*
X44259497Y-8378002D01*
X44394285Y-8246008D01*
X44552153Y-8142702D01*
X44727069Y-8072031D01*
X44912388Y-8036679D01*
X45101043Y-8037997D01*
X45101043Y-8037997D01*
G37*
G36*
X6204817Y-4051295D02*
X6579425Y-4128191D01*
X6931956Y-4276381D01*
X7248996Y-4490227D01*
X7518457Y-4761576D01*
X7730081Y-5080097D01*
X7875810Y-5433660D01*
X7949951Y-5808103D01*
X7949951Y-5808125D01*
X7950083Y-5808793D01*
X7943984Y-6245582D01*
X7943833Y-6246245D01*
X7943833Y-6246269D01*
X7859266Y-6618492D01*
X7703722Y-6967850D01*
X7483284Y-7280340D01*
X7206353Y-7544057D01*
X6883465Y-7748968D01*
X6526934Y-7887258D01*
X6150325Y-7953665D01*
X5767994Y-7945656D01*
X5394499Y-7863537D01*
X5044069Y-7710439D01*
X4730050Y-7492189D01*
X4464401Y-7217102D01*
X4257242Y-6895655D01*
X4116466Y-6540094D01*
X4047432Y-6163961D01*
X4052772Y-5781586D01*
X4132280Y-5407526D01*
X4282931Y-5056030D01*
X4498983Y-4740496D01*
X4772208Y-4472934D01*
X5092198Y-4263538D01*
X5446766Y-4120283D01*
X5822410Y-4048625D01*
X6204817Y-4051295D01*
X6204817Y-4051295D01*
G37*
G36*
X84204817Y-4051295D02*
X84579425Y-4128191D01*
X84931956Y-4276381D01*
X85248996Y-4490227D01*
X85518457Y-4761576D01*
X85730081Y-5080097D01*
X85875810Y-5433660D01*
X85949951Y-5808103D01*
X85949951Y-5808125D01*
X85950083Y-5808793D01*
X85943984Y-6245582D01*
X85943833Y-6246245D01*
X85943833Y-6246269D01*
X85859266Y-6618492D01*
X85703722Y-6967850D01*
X85483284Y-7280340D01*
X85206353Y-7544057D01*
X84883465Y-7748968D01*
X84526934Y-7887258D01*
X84150325Y-7953665D01*
X83767994Y-7945656D01*
X83394499Y-7863537D01*
X83044069Y-7710439D01*
X82730050Y-7492189D01*
X82464401Y-7217102D01*
X82257242Y-6895655D01*
X82116466Y-6540094D01*
X82047432Y-6163961D01*
X82052772Y-5781586D01*
X82132280Y-5407526D01*
X82282931Y-5056030D01*
X82498983Y-4740496D01*
X82772208Y-4472934D01*
X83092198Y-4263538D01*
X83446766Y-4120283D01*
X83822410Y-4048625D01*
X84204817Y-4051295D01*
X84204817Y-4051295D01*
G37*
G36*
X57349783Y-3800629D02*
X57532286Y-3838091D01*
X57704031Y-3910286D01*
X57858488Y-4014468D01*
X57989763Y-4146663D01*
X58092862Y-4301839D01*
X58163859Y-4474090D01*
X58199909Y-4656158D01*
X58199909Y-4656180D01*
X58200041Y-4656848D01*
X58197070Y-4869643D01*
X58196918Y-4870311D01*
X58196918Y-4870330D01*
X58155798Y-5051319D01*
X58080020Y-5221521D01*
X57972630Y-5373755D01*
X57837711Y-5502236D01*
X57680408Y-5602064D01*
X57506712Y-5669437D01*
X57323236Y-5701788D01*
X57136970Y-5697886D01*
X56955013Y-5657881D01*
X56784289Y-5583293D01*
X56631305Y-5476967D01*
X56501886Y-5342949D01*
X56400963Y-5186346D01*
X56332377Y-5013121D01*
X56298746Y-4829878D01*
X56301347Y-4643594D01*
X56340083Y-4461358D01*
X56413477Y-4290115D01*
X56518734Y-4136393D01*
X56651843Y-4006042D01*
X56807737Y-3904028D01*
X56980472Y-3834238D01*
X57163481Y-3799327D01*
X57349783Y-3800629D01*
X57349783Y-3800629D01*
G37*
G36*
X45962000Y-4962640D02*
X44038000Y-4962640D01*
X44038000Y-3038640D01*
X45962000Y-3038640D01*
X45962000Y-4962640D01*
X45962000Y-4962640D01*
G37*
M02*
