M48
;DRILL file {KiCad (2015-09-14 BZR 5783, Git e27fa50)-product} date Sat 19 Sep 2015 09:51:46 PM EDT
;FORMAT={-:-/ absolute / inch / decimal}
FMAT,2
INCH,TZ
T1C0.016
T2C0.026
T3C0.028
T4C0.035
T5C0.039
T6C0.050
T7C0.079
T8C0.138
%
G90
G05
M72
T1
X0.2461Y-3.2677
X0.3543Y-0.8465
X0.3543Y-0.9252
X0.3543Y-1.0039
X0.3543Y-1.0827
X0.4331Y-0.8858
X0.4331Y-0.9646
X0.4331Y-1.0433
X0.4331Y-1.122
X0.5118Y-0.8465
X0.5118Y-0.9252
X0.5118Y-1.0039
X0.5118Y-1.0827
X0.5906Y-0.8858
X0.5906Y-0.9646
X0.5906Y-1.0433
X0.6299Y-2.8937
X0.6299Y-2.9724
X0.689Y-3.1693
X0.689Y-3.2087
X0.7283Y-3.1693
X0.7283Y-3.2087
X0.7677Y-3.3661
X0.7677Y-3.4055
X0.8071Y-3.3465
X0.8071Y-3.3858
X0.8268Y-2.1654
X0.9055Y-0.374
X0.9055Y-0.4134
X0.9055Y-0.5709
X0.9055Y-0.6102
X0.9449Y-0.3937
X0.9449Y-0.4331
X0.9449Y-0.5906
X0.9449Y-0.6299
X0.9843Y-0.374
X0.9843Y-0.4134
X0.9843Y-0.5709
X0.9843Y-0.6102
X1.0039Y-1.4173
X1.0039Y-1.4567
X1.0039Y-1.4961
X1.0039Y-1.5354
X1.0039Y-1.5748
X1.0039Y-1.6142
X1.0236Y-0.3937
X1.0236Y-0.4331
X1.0236Y-0.5906
X1.0236Y-0.6299
X1.0433Y-1.3976
X1.0433Y-1.437
X1.0433Y-1.4764
X1.0433Y-1.5157
X1.0433Y-1.5551
X1.0433Y-1.5945
X1.063Y-0.5315
X1.063Y-0.5709
X1.063Y-0.6102
X1.063Y-0.6496
X1.0827Y-1.2992
X1.0827Y-1.3386
X1.0827Y-1.378
X1.0827Y-1.4173
X1.0827Y-1.4567
X1.0827Y-1.4961
X1.0827Y-1.5354
X1.0827Y-1.5748
X1.0827Y-1.6142
X1.1024Y-0.5512
X1.1024Y-0.5906
X1.1024Y-0.6299
X1.1024Y-0.6693
X1.122Y-1.3583
X1.122Y-1.3976
X1.122Y-1.5551
X1.122Y-1.5945
X1.1417Y-0.5315
X1.1417Y-0.5709
X1.1417Y-0.6102
X1.1417Y-0.6496
X1.1417Y-0.9252
X1.1417Y-0.9646
X1.1417Y-1.0039
X1.1811Y-0.5512
X1.1811Y-0.5906
X1.1811Y-0.6299
X1.1811Y-0.6693
X1.1811Y-0.7283
X1.1811Y-0.7677
X1.1811Y-0.8071
X1.1811Y-0.8465
X1.1811Y-0.9449
X1.1811Y-0.9843
X1.1811Y-1.9685
X1.1811Y-2.0079
X1.1811Y-2.0472
X1.2205Y-0.5807
X1.2205Y-0.6201
X1.2205Y-0.6693
X1.2205Y-0.7087
X1.2205Y-0.748
X1.2205Y-0.7874
X1.2205Y-0.8268
X1.2303Y-3.2329
X1.2303Y-3.2919
X1.2402Y-0.9055
X1.2402Y-2.5591
X1.2402Y-2.628
X1.2402Y-2.7067
X1.2402Y-3.3465
X1.25Y-0.9941
X1.25Y-1.1614
X1.2598Y-0.4134
X1.2598Y-0.4528
X1.2598Y-0.4921
X1.2598Y-0.5315
X1.2598Y-0.5709
X1.2598Y-0.6102
X1.2598Y-0.6496
X1.2598Y-0.689
X1.2598Y-0.7283
X1.2598Y-0.7677
X1.2598Y-0.8071
X1.2598Y-0.8465
X1.2598Y-3.0906
X1.2697Y-3.3268
X1.2697Y-3.3661
X1.2795Y-1.9882
X1.28Y-1.4331
X1.2992Y-0.3543
X1.2992Y-0.3937
X1.2992Y-0.4331
X1.2992Y-0.5906
X1.2992Y-0.6299
X1.2992Y-0.6693
X1.2992Y-0.7087
X1.2992Y-1.3484
X1.2992Y-3.1496
X1.3383Y-1.8599
X1.3386Y-2.6181
X1.3386Y-2.6577
X1.3386Y-2.6969
X1.378Y-1.4173
X1.3881Y-1.9098
X1.3976Y-2.3228
X1.4173Y-2.7756
X1.4558Y-2.7756
X1.4567Y-1.2795
X1.4567Y-1.7126
X1.4567Y-2.0276
X1.4567Y-2.126
X1.4567Y-2.5394
X1.4685Y-1.1969
X1.4687Y-1.5354
X1.4764Y-2.2047
X1.4843Y-1.126
X1.4959Y-2.7756
X1.4963Y-1.2247
X1.5121Y-1.1538
X1.5256Y-2.9724
X1.5256Y-3.0118
X1.5354Y-2.4803
X1.565Y-2.0472
X1.565Y-2.9921
X1.565Y-3.0315
X1.5843Y-1.9288
X1.5846Y-1.5354
X1.5846Y-2.0866
X1.5846Y-2.1752
X1.5846Y-2.2146
X1.5945Y-3.376
X1.5945Y-3.4154
X1.6043Y-2.9724
X1.6102Y-1.2795
X1.6339Y-3.3957
X1.6339Y-3.435
X1.6732Y-1.8504
X1.6732Y-2.0472
X1.6732Y-2.0866
X1.6732Y-3.376
X1.6732Y-3.4154
X1.6831Y-0.8079
X1.7126Y-1.811
X1.7126Y-1.8504
X1.7126Y-1.8898
X1.7126Y-2.5984
X1.7224Y-1.1024
X1.7224Y-2.1752
X1.7224Y-2.2146
X1.7323Y-1.3148
X1.7323Y-1.4961
X1.752Y-1.8504
X1.7717Y-0.7376
X1.7913Y-2.6378
X1.7913Y-2.7165
X1.7913Y-3.2776
X1.8012Y-0.8477
X1.8307Y-1.3878
X1.8307Y-1.4961
X1.8307Y-3.2776
X1.8406Y-3.2185
X1.8504Y-1.8307
X1.8602Y-3.248
X1.8701Y-0.7376
X1.8701Y-2.0943
X1.8736Y-2.024
X1.8799Y-3.1988
X1.8898Y-1.2008
X1.8996Y-1.5667
X1.942Y-2.1098
X1.9531Y-0.9787
X1.9685Y-1.0728
X1.9783Y-1.512
X1.9783Y-2.0177
X1.9783Y-2.1098
X1.998Y-1.2008
X2.0177Y-2.0177
X2.0276Y-1.4173
X2.0276Y-1.5136
X2.0276Y-1.7618
X2.0338Y-1.6748
X2.0374Y-1.2795
X2.0768Y-3.2776
X2.0768Y-3.3169
X2.0866Y-2.024
X2.0866Y-2.0943
X2.1161Y-3.2579
X2.1161Y-3.2972
X2.1457Y-3.1398
X2.1457Y-3.1791
X2.1509Y-1.7572
X2.1567Y-0.4146
X2.185Y-3.1594
X2.185Y-3.1988
X2.1949Y-1.752
X2.2441Y-1.5748
X2.2441Y-2.8937
X2.2441Y-2.9331
X2.2441Y-2.9724
X2.2441Y-3.0118
X2.2441Y-3.0512
X2.2638Y-1.5157
X2.2835Y-0.7087
X2.2835Y-0.8563
X2.2835Y-1.0827
X2.2835Y-1.7323
X2.2835Y-2.9134
X2.2835Y-2.9528
X2.2835Y-2.9921
X2.2835Y-3.0315
X2.2835Y-3.0709
X2.2835Y-3.1693
X2.2835Y-3.2087
X2.2911Y-1.4764
X2.2933Y-1.9291
X2.2933Y-2.0392
X2.313Y-0.689
X2.313Y-0.7283
X2.313Y-0.8366
X2.313Y-0.876
X2.3228Y-1.0827
X2.3228Y-2.8937
X2.3228Y-2.9331
X2.3228Y-2.9724
X2.3228Y-3.0118
X2.3228Y-3.0512
X2.3228Y-3.189
X2.3327Y-1.9291
X2.3327Y-2.0669
X2.3819Y-2.1161
X2.3819Y-2.1555
X2.3917Y-1.8799
X2.4016Y-2.7756
X2.4016Y-2.815
X2.4016Y-2.8543
X2.4016Y-2.8937
X2.4016Y-2.9331
X2.4016Y-2.9724
X2.4213Y-2.0965
X2.4213Y-2.1358
X2.4213Y-2.1752
X2.4409Y-2.7953
X2.4409Y-2.8346
X2.4409Y-2.874
X2.4409Y-3.2874
X2.4409Y-3.3268
X2.4409Y-3.3661
X2.4417Y-1.0827
X2.4606Y-2.1161
X2.4606Y-2.1555
X2.4803Y-1.0827
X2.4803Y-3.3858
X2.4902Y-3.3071
X2.4902Y-3.3465
X2.5Y-2.1358
X2.5Y-2.1752
X2.5098Y-1.5453
X2.5098Y-1.7421
X2.5189Y-1.0827
X2.5197Y-3.4055
X2.5295Y-1.8701
X2.5394Y-1.1614
X2.5394Y-1.2795
X2.5394Y-2.1161
X2.5394Y-2.1555
X2.5404Y-1.7706
X2.5591Y-3.3858
X2.5781Y-1.1301
X2.5896Y-1.8198
X2.5984Y-3.4055
X2.628Y-1.1516
X2.628Y-1.3583
X2.628Y-3.4449
X2.6673Y-3.4449
X2.6877Y-1.2014
X2.7067Y-3.4449
X2.7165Y-1.6142
X2.7165Y-1.7441
X2.7165Y-3.4055
X2.7268Y-1.2008
X2.7461Y-3.4449
X2.7559Y-1.2697
X2.7559Y-2.4606
X2.7657Y-1.6339
X2.7854Y-3.4449
X2.7953Y-1.8996
X2.815Y-0.8268
X2.815Y-0.8661
X2.815Y-0.9055
X2.8248Y-3.4449
X2.8346Y-3.4055
X2.8543Y-0.8465
X2.8543Y-0.8858
X2.8543Y-0.9252
X2.8543Y-3.3465
X2.8937Y-0.8268
X2.8937Y-0.8661
X2.8937Y-0.9055
X2.8937Y-3.3465
X2.9331Y-0.8465
X2.9331Y-0.8858
X2.9331Y-0.9252
X2.9331Y-3.3465
X2.9724Y-3.3465
X2.9921Y-3.2776
X3.1693Y-2.1358
X3.1693Y-2.1752
X3.2087Y-2.1161
X3.2087Y-2.1555
X3.248Y-2.1358
X3.248Y-2.1752
X3.2874Y-2.1161
X3.2874Y-2.1555
X3.3268Y-3.1496
X3.3661Y-3.1496
T2
X2.6181Y-2.0457
T3
X1.6732Y-1.5945
X1.6732Y-1.6732
X1.7126Y-2.6772
X1.752Y-1.5945
X1.752Y-1.6732
X2.2539Y-0.187
X2.6378Y-2.2638
X2.6575Y-3.0906
X2.7756Y-2.815
X2.8346Y-2.7126
X2.8346Y-2.9173
X2.9528Y-2.7126
X2.9528Y-2.9173
X3.0118Y-2.815
T4
X0.1969Y-1.6732
X0.3937Y-1.6732
X0.8662Y-1.6732
X1.063Y-1.6732
X1.7717Y-0.1575
X1.7717Y-0.3543
X3.3858Y-2.5878
X3.3858Y-2.6878
X3.3858Y-2.9028
X3.3858Y-3.0028
T5
X0.0678Y-0.9843
X0.165Y-2.7165
X0.165Y-2.9921
X0.265Y-2.7165
X0.265Y-2.9921
X0.365Y-2.7165
X0.365Y-2.9921
X0.465Y-2.7165
X0.465Y-2.9921
X0.8378Y-0.9843
X1.2764Y-2.8839
X1.3764Y-2.8839
X1.4075Y-3.1783
X1.4075Y-3.2783
X1.4764Y-2.8839
X1.9866Y-2.2441
X2.0866Y-2.2441
X2.1866Y-2.2441
X3.189Y-3.3465
X3.289Y-3.3465
X3.389Y-3.3465
T6
X2.026Y-0.5118
X2.126Y-0.5118
X2.226Y-0.5118
T8
X2.8937Y-2.815
T5
X0.315Y-2.1654G85X0.315Y-2.0866
G05
X0.502Y-2.3228G85X0.4035Y-2.3228
G05
X0.5512Y-2.1752G85X0.5512Y-2.0768
G05
T7
X3.0709Y-1.2795G85X3.3858Y-1.2795
G05
X3.0709Y-1.5157G85X3.3858Y-1.5157
G05
X3.0709Y-2.0276G85X3.3858Y-2.0276
G05
X3.0709Y-2.2638G85X3.3858Y-2.2638
G05
T0
M30
