G04 #@! TF.FileFunction,Legend,Bot*
%FSLAX46Y46*%
G04 Gerber Fmt 4.6, Leading zero omitted, Abs format (unit mm)*
G04 Created by KiCad (PCBNEW (2015-09-14 BZR 5783, Git e27fa50)-product) date Sat 19 Sep 2015 09:51:44 PM EDT*
%MOMM*%
G01*
G04 APERTURE LIST*
%ADD10C,0.100000*%
%ADD11C,0.175000*%
%ADD12C,0.150000*%
%ADD13C,0.200000*%
%ADD14C,0.350000*%
%ADD15C,0.254000*%
%ADD16C,3.900000*%
%ADD17O,12.400000X4.400000*%
%ADD18R,1.600000X1.600000*%
%ADD19C,1.600000*%
%ADD20C,1.700000*%
%ADD21C,1.900000*%
%ADD22C,2.398980*%
%ADD23R,2.398980X2.398980*%
%ADD24O,2.686000X1.924000*%
%ADD25R,2.400000X4.900000*%
%ADD26O,2.400000X5.400000*%
%ADD27O,5.900000X2.400000*%
%ADD28C,2.150000*%
%ADD29C,9.400000*%
%ADD30C,1.400000*%
%ADD31R,1.924000X1.924000*%
%ADD32C,1.924000*%
%ADD33R,1.924000X2.686000*%
%ADD34O,1.924000X2.686000*%
%ADD35R,3.800000X1.650000*%
G04 APERTURE END LIST*
D10*
D11*
X56450000Y-10700000D02*
X56350000Y-10733333D01*
X56316667Y-10766667D01*
X56283333Y-10833333D01*
X56283333Y-10933333D01*
X56316667Y-11000000D01*
X56350000Y-11033333D01*
X56416667Y-11066667D01*
X56683333Y-11066667D01*
X56683333Y-10366667D01*
X56450000Y-10366667D01*
X56383333Y-10400000D01*
X56350000Y-10433333D01*
X56316667Y-10500000D01*
X56316667Y-10566667D01*
X56350000Y-10633333D01*
X56383333Y-10666667D01*
X56450000Y-10700000D01*
X56683333Y-10700000D01*
X53783333Y-11000000D02*
X53816667Y-11033333D01*
X53916667Y-11066667D01*
X53983333Y-11066667D01*
X54083333Y-11033333D01*
X54150000Y-10966667D01*
X54183333Y-10900000D01*
X54216667Y-10766667D01*
X54216667Y-10666667D01*
X54183333Y-10533333D01*
X54150000Y-10466667D01*
X54083333Y-10400000D01*
X53983333Y-10366667D01*
X53916667Y-10366667D01*
X53816667Y-10400000D01*
X53783333Y-10433333D01*
X51649999Y-10700000D02*
X51416666Y-10700000D01*
X51316666Y-11066667D02*
X51649999Y-11066667D01*
X51649999Y-10366667D01*
X51316666Y-10366667D01*
D12*
X54104762Y-60811905D02*
X53838095Y-61611905D01*
X53571428Y-60811905D01*
X53076190Y-61916667D02*
X53114286Y-61878571D01*
X53190476Y-61764286D01*
X53228571Y-61688095D01*
X53266667Y-61573810D01*
X53304762Y-61383333D01*
X53304762Y-61230952D01*
X53266667Y-61040476D01*
X53228571Y-60926190D01*
X53190476Y-60850000D01*
X53114286Y-60735714D01*
X53076190Y-60697619D01*
X52885715Y-60811905D02*
X52428572Y-60811905D01*
X52657143Y-61611905D02*
X52657143Y-60811905D01*
X52238095Y-61916667D02*
X52200000Y-61878571D01*
X52123810Y-61764286D01*
X52085714Y-61688095D01*
X52047619Y-61573810D01*
X52009524Y-61383333D01*
X52009524Y-61230952D01*
X52047619Y-61040476D01*
X52085714Y-60926190D01*
X52123810Y-60850000D01*
X52200000Y-60735714D01*
X52238095Y-60697619D01*
X56359523Y-60850000D02*
X56435714Y-60811905D01*
X56549999Y-60811905D01*
X56664285Y-60850000D01*
X56740476Y-60926190D01*
X56778571Y-61002381D01*
X56816666Y-61154762D01*
X56816666Y-61269048D01*
X56778571Y-61421429D01*
X56740476Y-61497619D01*
X56664285Y-61573810D01*
X56549999Y-61611905D01*
X56473809Y-61611905D01*
X56359523Y-61573810D01*
X56321428Y-61535714D01*
X56321428Y-61269048D01*
X56473809Y-61269048D01*
X55978571Y-61611905D02*
X55978571Y-60811905D01*
X55521428Y-61611905D01*
X55521428Y-60811905D01*
X55140476Y-61611905D02*
X55140476Y-60811905D01*
X54950000Y-60811905D01*
X54835714Y-60850000D01*
X54759523Y-60926190D01*
X54721428Y-61002381D01*
X54683333Y-61154762D01*
X54683333Y-61269048D01*
X54721428Y-61421429D01*
X54759523Y-61497619D01*
X54835714Y-61573810D01*
X54950000Y-61611905D01*
X55140476Y-61611905D01*
X51261905Y-60811905D02*
X50995238Y-61611905D01*
X50728571Y-60811905D01*
X50461905Y-61307143D02*
X49852381Y-61307143D01*
X50157143Y-61611905D02*
X50157143Y-61002381D01*
X57038096Y-59311905D02*
X56580953Y-59311905D01*
X56809524Y-60111905D02*
X56809524Y-59311905D01*
X56314286Y-59692857D02*
X56047619Y-59692857D01*
X55933333Y-60111905D02*
X56314286Y-60111905D01*
X56314286Y-59311905D01*
X55933333Y-59311905D01*
X55590476Y-60111905D02*
X55590476Y-59311905D01*
X55323809Y-59883333D01*
X55057142Y-59311905D01*
X55057142Y-60111905D01*
X54676190Y-60111905D02*
X54676190Y-59311905D01*
X54371428Y-59311905D01*
X54295237Y-59350000D01*
X54257142Y-59388095D01*
X54219047Y-59464286D01*
X54219047Y-59578571D01*
X54257142Y-59654762D01*
X54295237Y-59692857D01*
X54371428Y-59730952D01*
X54676190Y-59730952D01*
X53876190Y-59692857D02*
X53609523Y-59692857D01*
X53495237Y-60111905D02*
X53876190Y-60111905D01*
X53876190Y-59311905D01*
X53495237Y-59311905D01*
X52695237Y-60111905D02*
X52961904Y-59730952D01*
X53152380Y-60111905D02*
X53152380Y-59311905D01*
X52847618Y-59311905D01*
X52771427Y-59350000D01*
X52733332Y-59388095D01*
X52695237Y-59464286D01*
X52695237Y-59578571D01*
X52733332Y-59654762D01*
X52771427Y-59692857D01*
X52847618Y-59730952D01*
X53152380Y-59730952D01*
X52390475Y-59883333D02*
X52009523Y-59883333D01*
X52466666Y-60111905D02*
X52199999Y-59311905D01*
X51933332Y-60111905D01*
X51780952Y-59311905D02*
X51323809Y-59311905D01*
X51552380Y-60111905D02*
X51552380Y-59311905D01*
X51057142Y-59311905D02*
X51057142Y-59959524D01*
X51019047Y-60035714D01*
X50980951Y-60073810D01*
X50904761Y-60111905D01*
X50752380Y-60111905D01*
X50676189Y-60073810D01*
X50638094Y-60035714D01*
X50599999Y-59959524D01*
X50599999Y-59311905D01*
X49761904Y-60111905D02*
X50028571Y-59730952D01*
X50219047Y-60111905D02*
X50219047Y-59311905D01*
X49914285Y-59311905D01*
X49838094Y-59350000D01*
X49799999Y-59388095D01*
X49761904Y-59464286D01*
X49761904Y-59578571D01*
X49799999Y-59654762D01*
X49838094Y-59692857D01*
X49914285Y-59730952D01*
X50219047Y-59730952D01*
X49419047Y-59692857D02*
X49152380Y-59692857D01*
X49038094Y-60111905D02*
X49419047Y-60111905D01*
X49419047Y-59311905D01*
X49038094Y-59311905D01*
D13*
X65700000Y-51625000D02*
X65600000Y-51725000D01*
X65100000Y-51525000D02*
X65700000Y-51625000D01*
X65700000Y-51925000D02*
X65100000Y-51525000D01*
X65800000Y-51525000D02*
X65700000Y-51925000D01*
X65800000Y-52025000D02*
X65800000Y-51525000D01*
X66000000Y-51525000D02*
X65800000Y-52025000D01*
X65900000Y-52225000D02*
X66000000Y-51525000D01*
X67200000Y-53125000D02*
X67300000Y-53125000D01*
X67300000Y-52925000D02*
X67200000Y-53125000D01*
X67100000Y-53025000D02*
X67300000Y-52925000D01*
X67200000Y-52625000D02*
X67100000Y-53025000D01*
X67000000Y-52925000D02*
X67200000Y-52625000D01*
X67100000Y-52425000D02*
X67000000Y-52925000D01*
X67500000Y-51925000D02*
X67900000Y-51525000D01*
X67700000Y-51425000D02*
X67500000Y-51925000D01*
X67500000Y-51425000D02*
X67300000Y-52025000D01*
X67300000Y-51525000D02*
X66900000Y-52825000D01*
X66700000Y-52825000D02*
X67100000Y-51525000D01*
X67000000Y-51425000D02*
X66600000Y-52725000D01*
X66400000Y-52725000D02*
X66900000Y-51425000D01*
X66800000Y-51125000D02*
X66200000Y-52825000D01*
X66000000Y-53025000D02*
X66700000Y-50925000D01*
X65800000Y-53125000D02*
X66600000Y-50725000D01*
X66500000Y-50525000D02*
X65700000Y-53125000D01*
X64750000Y-51425000D02*
X65850000Y-52225000D01*
X66100000Y-51425000D02*
X64750000Y-51425000D01*
X66500000Y-50175000D02*
X66100000Y-51425000D01*
X66900000Y-51425000D02*
X66500000Y-50175000D01*
X68250000Y-51425000D02*
X66900000Y-51425000D01*
X67150000Y-52225000D02*
X68250000Y-51425000D01*
X67500000Y-53425000D02*
X67150000Y-52225000D01*
X66500000Y-52675000D02*
X67500000Y-53425000D01*
X65500000Y-53425000D02*
X66500000Y-52675000D01*
X65850000Y-52225000D02*
X65500000Y-53425000D01*
D14*
X48555000Y-58905000D02*
X57445000Y-58905000D01*
X57445000Y-58905000D02*
X57445000Y-55095000D01*
X57445000Y-55095000D02*
X48555000Y-55095000D01*
X48555000Y-55095000D02*
X48555000Y-58905000D01*
X51730000Y-58905000D02*
X51730000Y-55095000D01*
D12*
X48555000Y-54460000D02*
X51730000Y-54460000D01*
D14*
X56554000Y-25171000D02*
X56554000Y-20829000D01*
X56554000Y-20829000D02*
X56554000Y-25171000D01*
X59446000Y-25171000D02*
X59446000Y-20829000D01*
X59446000Y-20829000D02*
X59446000Y-25171000D01*
X61554000Y-25171000D02*
X61554000Y-20829000D01*
X61554000Y-20829000D02*
X61554000Y-25171000D01*
X64446000Y-25171000D02*
X64446000Y-20829000D01*
X64446000Y-20829000D02*
X64446000Y-25171000D01*
D12*
X53533333Y-53616667D02*
X53533333Y-54183333D01*
X53500000Y-54250000D01*
X53466667Y-54283333D01*
X53400000Y-54316667D01*
X53266667Y-54316667D01*
X53200000Y-54283333D01*
X53166667Y-54250000D01*
X53133333Y-54183333D01*
X53133333Y-53616667D01*
X52500000Y-53616667D02*
X52633334Y-53616667D01*
X52700000Y-53650000D01*
X52733334Y-53683333D01*
X52800000Y-53783333D01*
X52833334Y-53916667D01*
X52833334Y-54183333D01*
X52800000Y-54250000D01*
X52766667Y-54283333D01*
X52700000Y-54316667D01*
X52566667Y-54316667D01*
X52500000Y-54283333D01*
X52466667Y-54250000D01*
X52433334Y-54183333D01*
X52433334Y-54016667D01*
X52466667Y-53950000D01*
X52500000Y-53916667D01*
X52566667Y-53883333D01*
X52700000Y-53883333D01*
X52766667Y-53916667D01*
X52800000Y-53950000D01*
X52833334Y-54016667D01*
X56866666Y-18816667D02*
X57100000Y-18483333D01*
X57266666Y-18816667D02*
X57266666Y-18116667D01*
X57000000Y-18116667D01*
X56933333Y-18150000D01*
X56900000Y-18183333D01*
X56866666Y-18250000D01*
X56866666Y-18350000D01*
X56900000Y-18416667D01*
X56933333Y-18450000D01*
X57000000Y-18483333D01*
X57266666Y-18483333D01*
X56266666Y-18116667D02*
X56400000Y-18116667D01*
X56466666Y-18150000D01*
X56500000Y-18183333D01*
X56566666Y-18283333D01*
X56600000Y-18416667D01*
X56600000Y-18683333D01*
X56566666Y-18750000D01*
X56533333Y-18783333D01*
X56466666Y-18816667D01*
X56333333Y-18816667D01*
X56266666Y-18783333D01*
X56233333Y-18750000D01*
X56200000Y-18683333D01*
X56200000Y-18516667D01*
X56233333Y-18450000D01*
X56266666Y-18416667D01*
X56333333Y-18383333D01*
X56466666Y-18383333D01*
X56533333Y-18416667D01*
X56566666Y-18450000D01*
X56600000Y-18516667D01*
X64366666Y-18816667D02*
X64600000Y-18483333D01*
X64766666Y-18816667D02*
X64766666Y-18116667D01*
X64500000Y-18116667D01*
X64433333Y-18150000D01*
X64400000Y-18183333D01*
X64366666Y-18250000D01*
X64366666Y-18350000D01*
X64400000Y-18416667D01*
X64433333Y-18450000D01*
X64500000Y-18483333D01*
X64766666Y-18483333D01*
X63733333Y-18116667D02*
X64066666Y-18116667D01*
X64100000Y-18450000D01*
X64066666Y-18416667D01*
X64000000Y-18383333D01*
X63833333Y-18383333D01*
X63766666Y-18416667D01*
X63733333Y-18450000D01*
X63700000Y-18516667D01*
X63700000Y-18683333D01*
X63733333Y-18750000D01*
X63766666Y-18783333D01*
X63833333Y-18816667D01*
X64000000Y-18816667D01*
X64066666Y-18783333D01*
X64100000Y-18750000D01*
D15*
G36*
X7947857Y-2117873D02*
X9401491Y-3086962D01*
X10373000Y-5029980D01*
X10373000Y-6970020D01*
X9401491Y-8913038D01*
X7947857Y-9882127D01*
X6000000Y-10369092D01*
X4052143Y-9882127D01*
X2598509Y-8913038D01*
X1627000Y-6970020D01*
X1627000Y-5029980D01*
X2598509Y-3086962D01*
X4052143Y-2117873D01*
X6000000Y-1630909D01*
X7947857Y-2117873D01*
X7947857Y-2117873D01*
G37*
X7947857Y-2117873D02*
X9401491Y-3086962D01*
X10373000Y-5029980D01*
X10373000Y-6970020D01*
X9401491Y-8913038D01*
X7947857Y-9882127D01*
X6000000Y-10369092D01*
X4052143Y-9882127D01*
X2598509Y-8913038D01*
X1627000Y-6970020D01*
X1627000Y-5029980D01*
X2598509Y-3086962D01*
X4052143Y-2117873D01*
X6000000Y-1630909D01*
X7947857Y-2117873D01*
G36*
X85947857Y-2117873D02*
X87401491Y-3086962D01*
X88373000Y-5029980D01*
X88373000Y-6970020D01*
X87401491Y-8913038D01*
X85947857Y-9882127D01*
X84000000Y-10369092D01*
X82052143Y-9882127D01*
X80598509Y-8913038D01*
X79627000Y-6970020D01*
X79627000Y-5029980D01*
X80598509Y-3086962D01*
X82052143Y-2117873D01*
X84000000Y-1630909D01*
X85947857Y-2117873D01*
X85947857Y-2117873D01*
G37*
X85947857Y-2117873D02*
X87401491Y-3086962D01*
X88373000Y-5029980D01*
X88373000Y-6970020D01*
X87401491Y-8913038D01*
X85947857Y-9882127D01*
X84000000Y-10369092D01*
X82052143Y-9882127D01*
X80598509Y-8913038D01*
X79627000Y-6970020D01*
X79627000Y-5029980D01*
X80598509Y-3086962D01*
X82052143Y-2117873D01*
X84000000Y-1630909D01*
X85947857Y-2117873D01*
%LPC*%
D16*
X84000000Y-6000000D03*
X6000000Y-6000000D03*
D17*
X82000000Y-32500000D03*
X82000000Y-38500000D03*
X82000000Y-57500000D03*
X82000000Y-51500000D03*
D18*
X44500000Y-40500000D03*
D19*
X42500000Y-40500000D03*
X44500000Y-42500000D03*
X42500000Y-42500000D03*
D20*
X66500000Y-51960029D03*
D21*
X67000000Y-57500000D03*
D22*
X54000000Y-13000000D03*
D23*
X56540000Y-13000000D03*
D22*
X51460000Y-13000000D03*
D24*
X35750000Y-83270000D03*
X35750000Y-80730000D03*
D21*
X43500000Y-68000000D03*
D25*
X14000000Y-54000000D03*
D26*
X8000000Y-54000000D03*
D27*
X11500000Y-59000000D03*
D21*
X57250000Y-4750000D03*
X67500000Y-78500000D03*
D28*
X21279000Y-25000000D03*
X1721000Y-25000000D03*
D29*
X73500000Y-71500000D03*
D30*
X76500000Y-71500000D03*
X75000000Y-74100000D03*
X72000000Y-74100000D03*
X70500000Y-71500000D03*
X72000000Y-68900000D03*
X75000000Y-68900000D03*
D31*
X9999360Y-42500000D03*
D32*
X5000640Y-42500000D03*
D31*
X86000000Y-68270000D03*
D32*
X86000000Y-65730000D03*
D31*
X86000000Y-76270000D03*
D32*
X86000000Y-73730000D03*
D33*
X86080000Y-85000000D03*
D34*
X83540000Y-85000000D03*
X81000000Y-85000000D03*
D33*
X50460000Y-57000000D03*
D34*
X53000000Y-57000000D03*
X55540000Y-57000000D03*
D31*
X45000000Y-4000640D03*
D32*
X45000000Y-8999360D03*
D33*
X11810000Y-69000000D03*
D34*
X9270000Y-69000000D03*
X6730000Y-69000000D03*
X4190000Y-69000000D03*
D33*
X11810000Y-76000000D03*
D34*
X9270000Y-76000000D03*
X6730000Y-76000000D03*
X4190000Y-76000000D03*
D33*
X37500000Y-73250000D03*
D34*
X34960000Y-73250000D03*
X32420000Y-73250000D03*
D31*
X22000640Y-42500000D03*
D32*
X26999360Y-42500000D03*
D35*
X58000000Y-26050000D03*
X58000000Y-19950000D03*
X63000000Y-26050000D03*
X63000000Y-19950000D03*
D15*
G36*
X45320394Y-47000000D02*
X43500000Y-48820394D01*
X41679606Y-47000000D01*
X43500000Y-45179606D01*
X45320394Y-47000000D01*
X45320394Y-47000000D01*
G37*
X45320394Y-47000000D02*
X43500000Y-48820394D01*
X41679606Y-47000000D01*
X43500000Y-45179606D01*
X45320394Y-47000000D01*
G36*
X87373000Y-39373000D02*
X76627000Y-39373000D01*
X76627000Y-31627000D01*
X87373000Y-31627000D01*
X87373000Y-39373000D01*
X87373000Y-39373000D01*
G37*
X87373000Y-39373000D02*
X76627000Y-39373000D01*
X76627000Y-31627000D01*
X87373000Y-31627000D01*
X87373000Y-39373000D01*
G36*
X87373000Y-58373000D02*
X76627000Y-58373000D01*
X76627000Y-50627000D01*
X87373000Y-50627000D01*
X87373000Y-58373000D01*
X87373000Y-58373000D01*
G37*
X87373000Y-58373000D02*
X76627000Y-58373000D01*
X76627000Y-50627000D01*
X87373000Y-50627000D01*
X87373000Y-58373000D01*
G36*
X32373000Y-23369859D02*
X30127000Y-23369859D01*
X30127000Y-15746859D01*
X30116994Y-15697449D01*
X30088553Y-15655824D01*
X30046159Y-15628544D01*
X30000000Y-15619859D01*
X27627000Y-15619859D01*
X27627000Y-13873859D01*
X32373000Y-13873859D01*
X32373000Y-23369859D01*
X32373000Y-23369859D01*
G37*
X32373000Y-23369859D02*
X30127000Y-23369859D01*
X30127000Y-15746859D01*
X30116994Y-15697449D01*
X30088553Y-15655824D01*
X30046159Y-15628544D01*
X30000000Y-15619859D01*
X27627000Y-15619859D01*
X27627000Y-13873859D01*
X32373000Y-13873859D01*
X32373000Y-23369859D01*
M02*
